<svg xmlns="http://www.w3.org/2000/svg" xmlns:xlink="http://www.w3.org/1999/xlink" width="60" height="60"><defs><path id="a" d="M1389.3 1887.28l-34.01 34.02c-.7.7-1.83.7-2.53 0l-5.44-5.44a1.79 1.79 0 0 1 .14-2.65 6.18 6.18 0 1 0-8.8-8.53 1.79 1.79 0 0 1-2.52 0l-5.44-5.44c-.7-.7-.7-1.83 0-2.53l34.01-34.01c.7-.7 1.83-.7 2.53 0l5.44 5.43c.64.65.7 1.68.12 2.4a6.14 6.14 0 0 0 .44 8.23 6.15 6.15 0 0 0 8.24.44 1.79 1.79 0 0 1 2.38.12l5.44 5.44c.7.7.7 1.83 0 2.52zm-22.97 8.8v-1.81c0-.16-.08-.3-.22-.38l-1.25-.7v-.56a.7.7 0 0 0-1.36-.19l-1.05-.58v-.53a.7.7 0 0 0-1.35-.22l-.93-.52c-.07-1.34-.2-2.57-.37-3.6a9.6 9.6 0 0 0-.5-1.9c-.09-.23-.37-.94-.96-.94s-.87.7-.97.94a9.6 9.6 0 0 0-.49 1.9c-.17 1.03-.3 2.26-.37 3.6l-.93.52a.69.69 0 0 0-1.35.22v.53l-1.05.58a.7.7 0 0 0-1.36.19v.57l-1.25.7a.43.43 0 0 0-.22.37v1.8c0 .14.06.27.18.35.11.08.26.1.39.06l5.55-1.94a34.16 34.16 0 0 0 .54 5.25l-2.9 1.6a.24.24 0 0 0-.11.21v.98a.23.23 0 0 0 .3.22l3.39-1.18c.15.2.37.36.65.36s.5-.16.65-.36l3.38 1.18.08.02c.05 0 .1-.02.13-.05.07-.04.1-.11.1-.19v-.98a.24.24 0 0 0-.12-.2l-2.89-1.6c.04-.21.09-.43.12-.66.22-1.27.37-2.87.42-4.6l5.55 1.94.14.02c.09 0 .18-.02.25-.08a.44.44 0 0 0 .18-.35zm11.72-7.4l-14.73-14.73a1.86 1.86 0 1 0-2.63 2.64l14.72 14.72a1.86 1.86 0 0 0 2.64-2.63z"/></defs><use fill="#00b1ff" xlink:href="#a" transform="translate(-1330 -1862)"/></svg>