<svg xmlns="http://www.w3.org/2000/svg" xmlns:xlink="http://www.w3.org/1999/xlink" width="51" height="37"><defs><path id="a" d="M422.62 76.86l-2.08-5.81 5.43-6.78-7.51 4.55-5.83-2.54L426 64.26h-.02zm-6.96-1.74c.21 1.1.33 2.22.33 3.38 0 10.22-8.62 18.5-19.25 18.5a19.7 19.7 0 0 1-11-3.32c11.63 3 24.59-11.66 29.92-18.56zm-31.91 12.15a14.02 14.02 0 0 1-4.8-1.7l-.03-.06a10.91 10.91 0 0 1-3.92-4.04s1.52 1.42 2.98 1.2c-.33-1.34-.5-2.74-.5-4.17 0-10.22 8.62-18.5 19.26-18.5 8.38 0 15.5 5.14 18.15 12.32-14.55 13.18-24.5 16.06-31.14 14.95z"/></defs><use fill="#ef5b5b" xlink:href="#a" transform="translate(-375 -60)"/></svg>