<svg xmlns="http://www.w3.org/2000/svg" xmlns:xlink="http://www.w3.org/1999/xlink" width="60" height="69"><defs><path id="a" d="M948.18 1908.98v10.5c0 .84-.68 1.52-1.52 1.52h-15.14c-.84 0-1.52-.68-1.52-1.52v-10.5c0-.85.68-1.53 1.52-1.53h2.99v-2.65c0-1.2.97-2.17 2.17-2.17h4.82c1.2 0 2.17.97 2.17 2.17v2.65h3c.83 0 1.5.68 1.5 1.53zm-6.87-3.99h-4.44v2.46h4.44zm19.2-53a5.67 5.67 0 1 1-.01 11.35 5.67 5.67 0 0 1 .02-11.34zm29.49 45.6v18.87c0 .9-.73 1.64-1.64 1.64h-1.22v1.78a1.12 1.12 0 1 1-2.23 0v-1.78h-4.82v1.78a1.12 1.12 0 1 1-2.24 0v-1.78h-1.21c-.9 0-1.64-.73-1.64-1.64v-18.86c0-.91.73-1.65 1.64-1.65h1.21v-7.27h-1a.54.54 0 0 1-.53-.55v-1.36l-6.18-3.95a2.74 2.74 0 0 1-1.26-2.3l-.06-8.87a.57.57 0 0 0-1.14.02c0 26.65.06 3.13.06 46.04a3.28 3.28 0 1 1-6.55 0v-26.28h-1.42v26.28a3.28 3.28 0 1 1-6.55 0v-46.06a.53.53 0 1 0-1.05 0l-.11 20.13c0 1.5-1.23 2.72-2.73 2.72h-.01a2.74 2.74 0 0 1-2.72-2.75l.1-20.13a6.49 6.49 0 0 1 6.46-6.45h14.66c3.55 0 6.45 2.9 6.47 6.45l.04 7.38 5.6 3.58a2.74 2.74 0 0 1 1.12 3.2h7.1c.3 0 .53.25.53.55v1.8c0 .3-.24.55-.54.55h-1v7.27h1.22c.9 0 1.64.74 1.64 1.65zm-5.1-1.64v-7.27h-4.8v7.27z"/></defs><use fill="#00b1ff" xlink:href="#a" transform="translate(-930 -1852)"/></svg>