<svg xmlns="http://www.w3.org/2000/svg" xmlns:xlink="http://www.w3.org/1999/xlink" width="134" height="144" viewBox="0 0 134 144"><defs><path id="jx7qa" d="M1050 4749.08c-.25-.19-.5-.26-.76-.05-.35.3-.72.13-1.1.09-.14-.01-.23-.16-.23-.31 0-.46-.08-.89-.22-1.32a.77.77 0 0 1 .03-.44c.13-.39.17-.8.35-1.2.22-.46.28-.94-.02-1.4a.61.61 0 0 1-.11-.28 2.55 2.55 0 0 0-.52-1.2c-.16-.21-.2-.43-.06-.68a1 1 0 0 0 .12-.35c.06-.32.24-.52.47-.69l.29-.2c.57-.45.7-.83.54-1.6l-.1-.36a.73.73 0 0 1 .03-.44c.3.03.49.24.54.56.1.51.2 1.03.1 1.55l-.14.74c-.04.2-.04.4.03.58.1.24.11.48.02.73-.06.16.02.3.15.36.19.1.38.17.57.22.17.06.35.09.53.13.3.06.62.07.87.57.03-.49-.07-.68-.3-.78a2.92 2.92 0 0 1-.91-.63c-.31-.3-.4-.71-.41-1.15 0-.06.06-.14.1-.17.06-.02.15-.03.2 0 .09.08.16.17.23.27.27.44.34.3.65.1.08-.04.15-.1.22-.17.14-.13.14-.31-.01-.44-.16-.11-.3-.21-.24-.46.04-.13-.05-.15-.14-.2-.26-.14-.3-.25-.17-.49.06-.1.12-.21.2-.3.26-.3.63-.28.77.1.11.28.25.36.5.36.38-.01.69.15.97.43.34.32.7.61.96 1.04.23.38.56.56.98.42.13-.04.27-.05.4-.04.18.03.31.25.27.45-.08.3-.16.62-.43.81-.22.15-.3.36-.29.64.02.37.01.75 0 1.12 0 .16.05.29.13.41.09.15.13.32.2.48.07.16-.1.47.15.5.17.03.17-.3.32-.42.27-.25.3-.61.24-.97-.03-.3-.08-.6-.22-.85a1.39 1.39 0 0 1-.02-1.23c.04-.11.1-.22.13-.34.09-.33.03-.61-.23-.79a1.68 1.68 0 0 1-.84-1.1c-.03-.15-.17-.23-.3-.29-.12-.06-.25-.09-.38-.14a.71.71 0 0 1-.43-.53 2.07 2.07 0 0 1-.06-.88c.08-.34.02-.63-.17-.92-.3-.47-.13-.95.03-1.42.05-.15.2-.2.33-.25.42-.17.87-.23 1.32-.2.36.02.7-.04 1.05-.15.29-.08.56-.2.86-.16.14.02.25-.07.38-.13.16-.1.32-.16.5-.23.3-.13.46-.35.46-.71 0-.2-.04-.41-.23-.51-.23-.12-.4-.3-.53-.55-.06-.1-.2-.17-.31-.26-.13-.1-.12-.31.03-.35.23-.05.25-.2.29-.4.06-.34.18-.37.48-.26.24.08.33.06.45-.16.15-.27.32-.55.1-.89-.05-.05.01-.13.08-.16.04-.03.09-.05.13-.04.39.09.62-.15.84-.46.12-.18.28-.33.43-.48.04-.05.08-.14.14-.15.64-.13 1.05-.84 1.74-.83.52-.24 1.07-.35 1.56-.65.16-.1.16-.21.02-.34-.03-.03-.08-.04-.12-.08-.13-.12-.11-.3.05-.33.52-.12 1.02-.35 1.56-.32.11 0 .22-.03.33-.05.15-.04.15-.14.08-.28-.07-.14 0-.24.13-.28.24-.08.49-.03.73.01.12.03.17.26.08.37-.08.09-.18.15-.25.24-.16.17-.11.4.07.48.29.13.57.07.86 0 .1-.02.13-.1.2-.18.15-.21.31-.42.5-.6.23-.23.4-.23.66-.02.09.07.16.17.25.24.07.06.15.14.23.04.07-.11.1-.25.03-.35-.07-.1-.18-.15-.27-.23-.11-.11-.24-.22-.3-.39-.08-.16-.01-.31.15-.3l.46.01c.18 0 .36 0 .54-.05.41-.11.66-.54.5-.97-.14-.35-.07-.62.04-.93.12-.35.26-.68.46-1 .26-.4.53-.8.77-1.22.27-.49.7-.67 1.14-.85.22-.09.45.04.62.22.21.23.42.42.74.44.15 0 .18.19.24.32.13.3.04.51-.18.71-.19.17-.36.37-.53.58-.08.1-.18.2-.17.38.04.02.09.05.12.03.53-.36 1.04-.09 1.53.11.45.2.56.59.29 1.02-.23.35-.38.72-.6 1.08.39.2.76.1.97-.26.05-.08.08-.18.12-.27.18-.4.18-.4.6-.36.12.01.26 0 .39-.03.18-.04.35-.06.52.04.13.07.26.05.4.02.49-.12.92-.02 1.27.43.05.07.16.09.24.13.13-.26.24-.37.36-.3.19.08.3.4.22.6-.03.08-.11.12-.17.07-.14-.1-.27-.24-.4-.36.03.2.1.4.24.53.21.21.3.47.33.78.03.23.11.33.32.14.07-.07.17 0 .21.1a1 1 0 0 1 .1.27c.03.17.04.36.14.5.25.3.22.64.1.98-.08.26-.11.5-.01.79.1.28.01.6-.1.87-.18.47-.43.87-.77 1.22-.21.22-.46.38-.62.66-.07.12-.2.11-.3.17-.5.36-1.02.72-1.27 1.38-.1.24-.24.42-.44.56-.3.2-.5.49-.64.84-.04.11-.1.22-.16.33-.1.25-.28.4-.53.39-.33 0-.54.16-.66.5-.08.21-.19.42-.39.5-.25.11-.36.35-.45.61-.1.3-.12.47-.02.44.17-.05.17-.21.2-.36.04-.22.17-.35.37-.34.56.02 1.06-.16 1.54-.44.18-.11.38-.16.5-.36.03-.06.1-.12.16-.12.1 0 .22.05.32-.04.25-.2.5-.42.7-.7l-.6.2c-.15.05-.27-.04-.3-.2-.08-.33.1-.82.35-.97a.44.44 0 0 1 .4-.05.8.8 0 0 0 .52 0c.27-.08.29-.05.28.27 0 .44.16.67.52.71.36.05.51-.08.6-.5.03-.1 0-.2.1-.27.34.44.47.86.42 1.41-.02.17-.08.35.04.5.02.04.07.07.1.06.04 0 .07-.04.1-.08.02-.01.01-.05.01-.07 0-.53.06-.63.5-.64.3-.01.57-.06.82-.24.23-.15.47-.15.71-.07l.59.18c.32.1.65.2.99.18.15 0 .3.04.46.08.12.02.17.17.1.29l-.14.25c-.1.26-.06.49.16.65.12.1.26.2.41.25.85.34 1.73.4 2.63.24.09-.02.17-.06.25-.1.28-.12.35-.26.32-.57l-.05-.22c-.09-.38-.05-.74.05-1.1.03-.13.04-.33.14-.32.25.04.32-.31.53-.26.27.06.58.03.76.26.34.44.82.48 1.23.72.11.06.22.03.33 0 .51-.13.96-.01 1.3.48l.7.92c.12.16.14.35.1.56-.08.5-.1.98.05 1.48.12.36.05.73-.2 1.04l-.2.21c-.23.3-.27.57-.04.88.2.26.28.55.4.85.15.42.4.78.68 1.1.14.16.31.18.48.24.14.06.12.4.33.27.15-.09.14-.3.22-.45.22-.42.34-.85.36-1.35.02-.48.24-.9.44-1.32.03-.09.18-.07.21.02.12.36.29.68.48.99.16.28.4.38.69.36.16-.01.31-.04.4-.2.26-.46.61-.46 1-.27.23.13.45.2.7.06.17-.1.35-.06.53-.05.2 0 .4.03.6-.01.28-.07.5-.1.67.26.1.2.29.04.43 0 .23-.04.26-.1.21-.35-.13-.55-.1-1.08.1-1.6-.05-.03-.08-.07-.12-.07-.17-.03-.4.08-.45-.2-.07-.3.19-.67.46-.7.18-.02.36 0 .53-.04.3-.04.37-.17.35-.5 0-.08-.04-.16-.04-.22 0-.16.15-.29.29-.26.06.02.13.03.18.08.36.3.79.32 1.22.34h.33c.86.04 1.68.25 2.45.69.36.21.71.35 1.15.3.46-.06.93.06 1.35.33.33.2.48.5.55.89.04.25-.06.38-.33.42-.06.01-.14 0-.2.03-.06.02-.1.09-.09.17 0 .05.05.09.08.11.03.03.08.05.12.05.32 0 .56.16.77.4.19.23.4.39.7.33.18-.04.3.07.42.2l.23.27c.2.22.27.45.08.73-.08.09-.04.18.04.25.19.15.4.23.63.13.53-.23 1.1-.22 1.65-.26.42-.02.85-.06 1.27-.12.43-.07.85 0 1.27.05.44.05.8.27 1.05.7.13.24.27.47.38.71.14.33.17.67.05 1.03-.05.14-.1.27-.13.42-.05.2 0 .37.17.42.4.13.73.37 1.04.67.11.12.27.12.36 0 .37-.5.88-.51 1.4-.55.06 0 .13 0 .2-.02.16-.05.3 0 .42.15.2.26.43.31.72.23.24-.06.5-.04.72.1.43.24.78.13 1.07-.28a.73.73 0 0 1 .44-.32c-.05-.2-.07-.39.11-.53.19-.14.37-.15.56-.02l.38.28c.16.14.2.32.17.54-.05.27-.25.4-.5.32-.22-.07-.36-.27-.55-.4l.2 1.02c.02.13.09.23.2.28.36.17.62.47.82.85.12.23.38.26.58.09.54-.45.57-.96.22-1.65-.31-.22-.4-.48-.14-.84.04-.06 0-.2.02-.29.05-.23.16-.35.37-.36.16 0 .31.02.46.05.16.03.3.09.46.14.84.27 1.7.34 2.58.25.38-.04.72.05 1.07.3.48.35 1.01.62 1.53.92.38.22.74.46 1.03.82.25.3.54.53.87.7.24.12.44.3.6.57.18.33.5.55.8.76.28.2.56.4.72.76.06.14.19.21.31.26.16.04.2.17.22.34 0 .12.07.18.17.08.16-.16.3-.08.4.05.16.19.29.4.43.58.1.12.09.27.1.42.03.43.14.83.28 1.23.03.07.1.12.16.07a.23.23 0 0 0 .08-.12c.07-.2-.03-.38-.14-.54-.07-.12 0-.27.12-.27.27 0 .54-.05.77.18.14.14.31.17.5.12.4-.12.7.03.91.42.33.58.8 1 1.27 1.44.18.16.18.23-.04.38-.2.13-.36.28-.42.54-.08.36-.35.5-.62.62-.08.04-.18.02-.26.04-.28.06-.43.2-.41.5.01.35-.09.57-.32.76-.16.13-.14.3-.04.47.08.12.18.28.08.4-.14.18-.28.4-.52.45a.32.32 0 0 1-.19-.04c-.25-.16-.54-.24-.72-.52a1 1 0 0 0-.57-.38c-.49-.15-.76-.51-.83-1.05-.06-.42-.27-.68-.63-.79a.61.61 0 0 0-.52.05.66.66 0 0 1-.59.05c-.17-.06-.32-.15-.4-.35-.13-.34-.42-.6-.3-1.03.03-.08-.2-.2-.27-.15l-.3.3c-.12.1-.12.25-.07.4a.9.9 0 0 0 .07.12c.12.18.25.36.22.61-.03.3-.12.6-.31.81-.34.37-.61.79-1.06 1.03-.2.12-.4.21-.62.14a2.65 2.65 0 0 0-.4-.09c-.09-.01-.17.05-.21.14-.04.1-.04.2 0 .29.12.21.29.34.5.35.2.02.27.14.31.32l.25 1.01c.06.27.12.54.26.77.1.17.19.33.1.55-.05.14.07.22.12.33.14.35-.04.85-.36 1-.08.03-.18.01-.26-.02-.12-.04-.24-.13-.35-.2a1.01 1.01 0 0 0-1.21.04 37.6 37.6 0 0 1-2.5 1.58c-.34.21-.63.58-.88.91-.32.4-.7.73-1.07 1.03-.33.25-.57.52-.7.95-.06.2-.24.23-.36.06-.1-.14-.17-.29-.25-.44a.86.86 0 0 0-.66-.46c-.57-.1-1.06.1-1.48.52-.1.1-.19.22-.3.31-.12.12-.22.4-.4.3-.16-.1 0-.33-.02-.5-.03-.16-.14-.23-.3-.16-.26.12-.46.3-.58.59-.05.13-.15.2-.27.13-.18-.1-.35-.03-.52-.02-.35.02-.57.22-.6.58-.07.63-.37 1.12-.68 1.61-.2.34-.36.68-.44 1.08-.03.2.08.3.28.27.09-.02.17-.07.26-.06.35.01.5.32.36.68-.03.09-.09.17-.13.26-.18.36-.2.71.06 1.04.22.3.24.63.15.99-.03.1-.09.17-.19.19-.1.01-.17-.05-.2-.14-.06-.1-.1-.22-.15-.35-.14.18-.27.34-.38.52-.29.46-.42.94-.16 1.48l.05.13c.2.5.04.8-.43.79a.95.95 0 0 0-.79.32c-.34.36-.57.75-.45 1.32.04.2-.03.33-.21.4-.14.07-.28.15-.42.25-.27.2-.46.47-.48.85-.06.9-.62 1.46-1.17 2.02-.13.14-.3.07-.37-.14-.1-.28-.13-.58-.12-.88 0-.38-.02-.75-.17-1.1-.06-.15-.07-.33-.1-.5-.05-.3-.07-.6-.14-.9-.22-.9-.26-1.82-.37-2.73-.09-.78.04-1.54.23-2.3.07-.25.2-.44.39-.58.37-.29.54-.66.5-1.16-.02-.16.04-.3.2-.33.8-.18 1.29-.84 1.78-1.49.14-.17.26-.35.33-.56.13-.42.37-.74.66-1.01.4-.38.72-.83.97-1.33a.9.9 0 0 1 .43-.45l.42-.24c.58-.36.58-.36.73-1.04l.3-1.53c.04-.34.18-.6.46-.77.05-.04.1-.1.08-.19a.2.2 0 0 0-.2-.16c-.4.02-.74.2-.92.62-.15.35-.21.7-.14 1.1.04.24 0 .32-.24.33-.25 0-.42.1-.58.3-.3.34-.6.67-.89 1.03a1.4 1.4 0 0 1-.46.41c-.16.08-.27.03-.3-.16-.01-.07.02-.17-.01-.21-.35-.46-.2-.93-.05-1.4l-.02-.08c-.05-.1-.15-.1-.23-.1-.24-.03-.34-.37-.6-.32-.21.04-.42.12-.64.17-.11.03-.22.03-.34.05-.37.05-.69.27-.85.65-.16.41-.46.73-.64 1.13a1.9 1.9 0 0 1-.6.7c-.37.29-.49.77-.7 1.17-.06.11 0 .25.1.33.12.1.26.19.38.3.13.11.1.37-.05.44-.25.12-.5.26-.77.17a.56.56 0 0 0-.57.1c-.35.29-.78.2-1.15.36-.16.08-.35-.02-.48-.18a.24.24 0 0 1 .07-.36c.13-.08.38.04.38-.2 0-.25-.38-.53-.6-.47-.19.06-.34.06-.51-.05-.07-.05-.17-.07-.25-.1a1.48 1.48 0 0 1-.19-.1c-.36-.18-.59-.12-.74.33l-.1.2c-.08.14-.2.21-.34.13-.19-.11-.37-.15-.57-.03-.2.12-.4.05-.58-.03-.23-.08-.43-.1-.61.13-.13.16-.29.13-.42-.01-.2-.22-.43-.25-.68-.26-.47-.01-.94.07-1.4.16-.41.08-.75.35-1 .71-.24.37-.51.69-.8.99-.1.1-.21.21-.26.35-.2.56-.62.92-.98 1.31a8.2 8.2 0 0 0-1.16 1.54c-.25.45-.56.84-.94 1.17-.4.34-.78.75-1.16 1.13-.17.17-.14.35.04.5.11.08.23.15.37.13.11-.01.22-.05.33-.05.16-.01.27.09.28.25l.01.37c.02.14-.08.34.1.38.12.01.1-.2.17-.3a.9.9 0 0 1 .14-.14c.06-.06.2 0 .23.07.06.3.07.59.02.91.37-.05.54-.39.81-.53.02 0 .03-.04.03-.06-.03-.51.3-.37.55-.37.4-.01.7.15.87.57.1.24.24.42.43.56.27.2.4.42.28.81-.08.25-.01.55.04.82 0 .03.06.07.1.07.03.01.1-.01.12-.04.12-.2.14-.42.17-.64.03-.17.04-.35.05-.52 0-.28.08-.48.36-.54.19-.03.24-.2.2-.4-.02-.17-.07-.34-.1-.51-.02-.1.02-.2.11-.24.1-.06.24 0 .28.12.04.12.09.23.1.36.01.4.1.78.2 1.17.1.4.12.8.05 1.2-.09.45 0 .88.1 1.32l.76 3.18v.17c-.19.11-.34-.07-.5-.08-.28-.02-.45.07-.53.35-.13.45-.22.91-.31 1.38-.05.22 0 .45.11.64.17.3.26.65.5.9.11.13.16.29.16.47 0 .07-.02.18-.06.2-.09.09-.15-.01-.2-.1-.04-.05-.07-.12-.12-.17-.21-.21-.4-.17-.54.11-.02.02-.02.04-.03.07-.07.14-.1.34-.3.37-.11 0-.2-.19-.23-.48l.01-.3c.05-.47.1-.95.17-1.42.07-.35.07-.69-.04-1.02-.12-.32-.1-.64-.02-.96.13-.56.16-1.13.1-1.71-.01-.15-.02-.3 0-.45.05-.48.02-.94-.27-1.35-.1-.14-.12-.35-.19-.56a3.86 3.86 0 0 0-.73 1.62 2.8 2.8 0 0 0-.03.96c.1.5.08 1-.08 1.48-.04.11-.08.24-.09.36 0 .53-.27.92-.56 1.32a6.37 6.37 0 0 0-1.05 1.9c-.14.5-.45.9-.76 1.3l-1.28 1.74a1 1 0 0 0-.15.25 3 3 0 0 1-1.05 1.23c-.56.45-1.13.55-1.75.15-.34-.23-.35-.2-.64.08-.24.25-.5.47-.76.72a5.3 5.3 0 0 0-.38.42c-.18.23-.31.48-.28.81.03.3-.1.51-.31.7-.4.33-.72.74-1.2.96-.38.17-.43.58-.11.9.43.44.67 1 1.01 1.49.25.37.38.78.38 1.26 0 .24.03.5.04.74.02.54-.14.79-.6 1.05-.39.22-.82.33-1.2.62-.18.12-.43.13-.65.17-.14.03-.25-.09-.26-.26 0-.33.05-.66.18-.94.17-.4.1-.73-.13-1.04l-.11-.18c-.05-.1-.05-.2.03-.27.06-.07.15-.11.21-.18.12-.11.14-.24.08-.4-.13-.4-.28-.52-.64-.5-.1 0-.18.04-.27.04-.32.02-.59-.4-.44-.73.17-.33.27-.68.3-1.06.02-.17-.05-.28-.2-.34-.89-.32-1.67-.13-2.35.57-.17.18-.35.31-.58.36a.13.13 0 0 1-.11-.05c-.03-.03-.04-.1-.02-.13.13-.19.22-.36.1-.61-.08-.14.02-.29.1-.41.11-.18.25-.36.35-.55a.5.5 0 0 0-.1-.6c-.12-.12-.36-.15-.5.01-.41.48-.87.92-1.36 1.3a.28.28 0 0 0-.08.12c-.18.45-.5.62-.92.62-.17 0-.3.02-.38.21-.1.23-.09.44.06.63.03.04.05.1.09.11.38.24.66.58.87 1.01.09.2.36.21.54.07.14-.11.27-.26.42-.38.18-.16.39-.24.61-.1.29.17.58.26.9.25.2-.02.32.13.34.3.03.2-.08.42-.27.44-.23.02-.42.16-.64.22-.2.05-.39.16-.48.37-.14.29-.45.32-.6.59-.08.14-.21.25-.3.4-.33.51-.46.7.15 1.03.25.14.4.38.5.67.06.16.11.32.15.5.09.45.26.84.54 1.18.1.13.2.28.27.42.06.1.03.2-.07.24-.13.06-.19.15-.1.28.08.1.16.19.22.3.06.11.06.24-.04.33l-.47.39c0 .23.18.24.27.33.3.28.38.51.26.9-.09.28-.2.56-.3.83a.82.82 0 0 1-.14.26c-.6.7-1 1.57-1.39 2.44-.22.51-.54.97-.97 1.3-.02.01-.05.01-.07.03-.34.5-.84.8-1.24 1.2-.3.3-.61.5-1 .56-.24.05-.48.1-.72.17a.8.8 0 0 0-.4.25c-.15.16-.17.15-.3-.12-.05-.06-.12-.16-.15-.1-.13.26-.48.13-.57.45-.06.18-.23.22-.39.26l-1.04.31-.38.13c-.21.08-.35.22-.32.5.03.18.07.36-.12.45-.15.08-.34-.07-.46-.34a5.07 5.07 0 0 1-.07-.2c-.05-.16.06-.4-.16-.45-.25-.06-.45-.26-.76-.15-.65.22-1.2.54-1.56 1.2-.06.1-.15.17-.23.26-.27.24-.34.58-.4.93-.02.15.01.3.1.42.47.63.82 1.38 1.4 1.9.35.29.66.6.89 1 .07.14.16.26.2.4.2.8.42 1.58.27 2.43l-.02.07c-.03 1.1-.2 1-.82 1.47-.26.2-.53.38-.84.46-.18.05-.35.12-.43.32-.16.35-.42.57-.7.78-.08.05-.14.13-.21.18-.14.11-.25.36-.45.22-.17-.12-.12-.36-.13-.55l.02-.38c0-.28-.22-.56-.48-.6-.03-.02-.07.04-.1.08-.06.11-.13.1-.2 0-.18-.22-.31-.48-.58-.6-.08-.05-.14-.2-.17-.31-.14-.46-.46-.72-.77-1.02a.73.73 0 0 0-.5-.2c-.25 0-.42-.13-.46-.43-.01-.07-.05-.14-.09-.2-.1-.15-.39-.12-.46.05-.02.05-.05.1-.05.14.01.78-.38 1.43-.55 2.14-.05.2-.12.39-.14.58-.04.31 0 .6.33.73.19.06.27.22.33.42.11.34.25.65.35.98.1.36.3.6.61.74.62.27 1.07.81 1.54 1.3.22.22.32.54.32.88v.53c-.02.45.02.9.35 1.24.03.03.04.08.07.12.2.36.3.72.07 1.12-.04.08-.03.2-.13.23-.4-.41-.88-.65-1.32-.96a3.47 3.47 0 0 1-.94-1.04 4.75 4.75 0 0 1-.67-2.16c-.03-.26-.08-.5-.22-.7-.29-.45-.59-.88-.9-1.31-.07-.12-.17-.23-.3-.27-.1-.02-.22-.01-.25-.07a.63.63 0 0 1-.06-.35c.02-.22.06-.44.1-.67.04-.32.13-.63.08-.96-.04-.28.09-.54.15-.8.03-.15-.01-.24-.16-.26-.14-.02-.22-.12-.13-.25.32-.47.24-.95.03-1.42a7.3 7.3 0 0 1-.63-2.58.76.76 0 0 0-.34-.6c-.15-.1-.29-.13-.43 0l-.8.7a.78.78 0 0 1-1.05-.02.37.37 0 0 1-.13-.34c.03-.18.06-.39.11-.58.18-.72.05-1.33-.46-1.83-.08-.08-.2-.17-.2-.3.05-.43-.24-.58-.49-.8-.5-.42-.84-.96-.9-1.68-.02-.28-.09-.54-.27-.75-.14-.16-.34-.19-.46 0-.35.58-.86.74-1.42.85-.31.06-.6.13-.92.03-.39-.12-.85.21-.92.65-.1.6-.38.98-.9 1.19-.41.15-.75.43-1 .84-.34.54-.86.86-1.28 1.32-.04.05-.1.1-.15.13-.32.18-.42.6-.7.8-.27.2-.64.23-.84.58-.08.13-.23.14-.36.2-.33.17-.42.36-.39.76.04.4.07.8.14 1.2.06.33.06.65-.07.95a4.3 4.3 0 0 0-.3 1.6c0 .24-.04.45-.26.56-.05.01-.1.04-.11.08-.22.56-.72.86-1 1.37-.06.1-.12.2-.2.29-.22.22-.44.22-.66 0a2.15 2.15 0 0 1-.54-.93c-.19-.62-.4-1.22-.61-1.82a1.14 1.14 0 0 0-.2-.39c-.3-.3-.43-.7-.51-1.12-.18-.92-.62-1.7-1-2.53-.2-.42-.38-.84-.4-1.33 0-.18-.06-.34-.1-.51l-.34-1.99c-.01-.07-.02-.16 0-.22.17-.48.04-.93-.07-1.39-.05-.24-.07-.49-.12-.78-.18.17-.18.39-.23.56-.2.63-.9 1-1.4.68-.46-.29-.77-.76-1.08-1.22-.06-.09.02-.25.13-.28.17-.05.35-.08.52-.14.05-.02.1-.1.12-.17 0-.08-.07-.11-.13-.12h-.14c-.47.09-.83-.1-1.1-.53l-.1-.1c-.17-.3-.56-.34-.7-.68-.12-.33-.35-.58-.5-.87-.15-.28-.36-.37-.63-.32l-.67.09c-.26.03-.52.05-.8.03-.43-.03-.9-.03-1.32.08-.45.12-.89.06-1.33-.01a67.5 67.5 0 0 1-.73-.13l-1.77-.36c-.29-.05-.48-.25-.58-.56-.06-.18-.11-.38-.2-.55-.13-.28-.34-.34-.54-.13-.42.49-.95.4-1.45.35a2.49 2.49 0 0 1-1.44-.73 2.01 2.01 0 0 0-.73-.5c-.24-.08-.37-.27-.47-.51-.2-.56-.57-1.01-.82-1.54-.09-.19-.2-.32-.43-.29-.26.04-.37-.22-.53-.38-.2 0-.2.2-.27.31-.54.7-.55.61-.19 1.5.25.61.6 1.13 1.03 1.57.28.29.46.6.44 1.04-.01.16.04.29.13.41.09.13.25.14.34 0 .08-.12.13-.25.22-.37.07-.11.26-.07.34.06.07.11.08.23.09.35 0 .3 0 .6-.04.9-.03.31.22.63.48.57.4-.1.8-.07 1.2-.1.34-.04.61-.22.85-.53.36-.48.75-.92 1.14-1.37.02-.04.09-.06.12-.05.05.03.12.09.13.15.01.22.03.44.01.67-.03.54.2.9.57 1.2.24.18.5.3.8.38.36.1.66.27.86.65.06.13.16.23.26.34.3.36.33.48.14.91-.06.16-.14.32-.25.44-.18.23-.34.45-.32.79.01.17-.13.23-.28.25-.47.04-.6.17-.64.64l.01.3c.02.2-.05.35-.23.4-.37.1-.64.33-.77.74-.05.15-.18.23-.31.26a.96.96 0 0 0-.71.62c-.09.2-.25.29-.45.28-.46-.02-.86.2-1.29.35-.26.1-.52.25-.62.53-.15.4-.45.57-.75.71-.4.2-.83.36-1.26.5-.27.07-.51.17-.7.4a.92.92 0 0 1-.7.38.59.59 0 0 0-.37.14c-.3.26-.65.33-1.01.38-.36.04-.7.13-1 .4-.28.25-.66.28-1.01.26-.42-.01-.61-.19-.72-.64l-.25-1.08c-.05-.2-.1-.39-.18-.56a.8.8 0 0 1-.07-.58c.2-.74-.12-1.33-.52-1.83-.33-.4-.58-.82-.75-1.32-.17-.53-.45-.97-.93-1.2-.42-.21-.63-.55-.67-1.05 0-.17-.07-.35-.05-.52.05-.53-.17-.97-.34-1.43a1.45 1.45 0 0 0-.66-.82c-.34-.18-.5-.48-.58-.86-.06-.3-.2-.55-.36-.8l-1.06-1.82c-.08-.14-.15-.32-.28-.41-.24-.17-.24-.38-.2-.64.07-.39 0-.75-.11-1.11-.12-.4-.23-.81-.36-1.21-.1-.27-.1-.53.08-.77.2-.25.29-.56.35-.88.1-.62.32-1.2.62-1.73.3-.52.47-1.06.36-1.7-.07-.39.1-.79.03-1.18-.16-.12-.33.04-.47-.04-.38-.18-.66-.04-.96.26-.3.3-.7.31-1.07.34-.2.01-.34-.13-.47-.27-.24-.24-.5-.4-.8-.53-.2-.09-.35-.05-.45.18-.15.33-.38.48-.7.5-.15 0-.32 0-.43-.15-.32-.4-.72-.46-1.16-.42-.18.02-.25-.06-.13-.25-.36-.26-.5-.66-.58-1.1-.03-.17-.19-.2-.3-.29-.32-.22-.33-.32-.12-.63.28-.4.26-.69-.12-1.05-.19-.18-.23-.28-.14-.5.08-.2.19-.4.3-.59.06-.11.18-.18.29-.1.4.25.83 0 1.24.08.2.03.33-.13.47-.26.06-.04.08-.1.09-.18.03-.41.03-.42.3-.43.27 0 .55-.02.81.07.32.11.61.05.86-.23.15-.15.33-.26.5-.4.35-.28.75-.41 1.18-.44l.67-.03c.32-.03.6 0 .88.24.27.24.61.38.92.58.51.35 1.1.53 1.73.4.28-.06.58-.05.87-.03.6.02 1-.39 1.36-.83.04-.05.08-.14.07-.2-.08-.49-.12-1.01-.58-1.3-.23-.13-.5-.23-.68-.45-.06-.08-.14-.16-.07-.26.03-.05.1-.1.16-.1.23-.03.45.02.66.11.4.18.8.33 1.23.31.31-.02.56.18.8.36.26.2.52.31.87.26.46-.07.9.05 1.1.61.06.14.19.22.3.28.35.15.63.39.87.7.16.22.34.2.51 0 .05-.05.1-.1.13-.17.29-.55.4-.33.65.05.07.1.13.2.18.32.17.4.39.73.8.85.04.03.1.1.11.17.03.08-.04.12-.1.13-.24.04-.34.23-.4.45-.06.2-.1.39-.13.58-.04.18-.07.35-.23.44-.23.1-.27.31-.23.55.04.23.05.45.1.67.04.33.2.57.5.62.33.05.57.22.8.48.37.43.85.54 1.36.42.29-.08.57-.15.85-.24.17-.05.38.1.5-.12.08-.2-.04-.4-.07-.58-.05-.35-.13-.7-.1-1.04.05-.33.1-.64-.13-.92-.13-.16.04-.38-.06-.57-.09-.16-.1-.3-.33-.29-.2.02-.27-.1-.3-.31-.02-.28.05-.54.16-.83l.63.2a.5.5 0 0 0 .39-.01c.21-.1.28-.34.15-.55-.13-.23-.28-.44-.42-.67-.17-.34-.44-.23-.61-.05-.1.1-.13.26-.16.41 0 .06-.06.15-.1.16-.11.02-.16-.09-.2-.18a1.25 1.25 0 0 1-.09-.8c.12-.47.02-.75-.4-.92a.95.95 0 0 1-.6-.83c-.03-.31-.26-.52-.44-.74l-.3-.3c-.07-.1-.01-.28.1-.3a.87.87 0 0 1 .2-.03c.14.01.3.14.44 0 .11-.11.04-.29.08-.43.03-.14.1-.23.22-.25.19-.02.34-.12.5-.2.07-.05.19-.09.26-.06.46.2.99-.03 1.44.25h.06c.14.03.26-.15.22-.29-.03-.09-.07-.2-.12-.25a3.17 3.17 0 0 1-.77-1.13c-.05-.13-.15-.24-.23-.36-.2-.3-.46-.48-.81-.42-.23.04-.44 0-.65-.1-.19-.08-.36-.06-.5.1-.24.3-.56.39-.89.47-.25.05-.55.06-.64.45-.03.12-.17.15-.28.1-.1-.05-.2-.1-.3-.17-.14-.1-.15-.26-.04-.38.05-.05.12-.08.16-.13.05-.05.1-.1.13-.17.1-.33-.24-1-.55-1.08h-.27c-.18 0-.28-.11-.36-.28-.06-.14-.1-.32-.19-.4-.35-.26-.28-.59-.13-.92.1-.23.15-.45.1-.71-.04-.25.03-.5.16-.7l.2-.4c.19-.49.32-.5.61-.07l.19.31c.05.09.12.14.22.1.1-.02.15-.11.14-.22l-.07-.45c-.02-.16.02-.3.15-.38.17-.12.32-.27.44-.46a.66.66 0 0 1 .3-.27c.26-.11.48-.28.65-.52.16-.2.38-.26.61-.2.11.02.25.09.33.04.5-.32.95.13 1.42.14.1 0 .19.13.27.21l.44.46c.04.05.1.15.14.14.37-.11.57.23.83.39.17.1.35.1.5-.06.34-.35.7-.5 1.17-.38.1.02.22-.03.33-.05.28-.06.53-.02.69.3.1.23.32.24.51.3.2.08.34.04.49-.12.14-.15.29-.04.44 0 .43.12.74-.13.8-.62.02-.11-.01-.2-.1-.26l-.6-.32a1.18 1.18 0 0 1-.55-.63c-.12-.32-.32-.44-.62-.46-.33-.03-.36-.08-.44-.45-.03-.17-.04-.35-.09-.5-.18-.54-.05-.99.25-1.4.17-.24.36-.46.43-.76l.03-.15c.01-.1.04-.2-.04-.28-.07-.07-.17-.03-.25.02-.1.07-.17.15-.26.23-.32.25-.78.25-1.05-.04a1.72 1.72 0 0 1-.44-1.06c-.02-.23.2-.44.4-.4.13.04.25.12.38.17.41.15.7-.05.76-.53v-.3c-.01-.2-.11-.33-.28-.36-.14-.02-.27 0-.4-.03-.37-.06-.56-.25-.63-.66a2.4 2.4 0 0 1 .05-1.11c.2-.62.38-1.25.88-1.66a.19.19 0 0 0 .04-.05c.57-.7.58-1.2.03-1.9-.22-.28-.37-.54-.32-.94.02-.24.04-.43.21-.6.1-.1.19-.21.27-.33.28-.41.36-.85.1-1.32a1.86 1.86 0 0 1-.14-.34c-.06-.2-.06-.4.14-.52.18-.1.18-.27.16-.44l-.1-.6c-.06-.31-.1-.63-.03-.96a.7.7 0 0 0-.05-.5c-.15-.25-.11-.49-.01-.72.18-.42.27-.84.13-1.3-.06-.2.03-.4.1-.59.2-.55.38-1.1.35-1.73-.02-.3.14-.5.41-.5.48.02.74-.28.94-.7.12-.27.31-.48.53-.66.2-.17.38-.35.56-.53.3-.28.53-.6.65-1.03.11-.45.39-.78.77-.98.36-.18.65-.42.77-.88.02-.1.12-.2.2-.28.27-.22.32-.53.3-.87-.01-.2-.1-.3-.26-.39-.54-.28-.63-.49-.43-1.1.13-.36.13-.67-.06-1-.25-.41-.2-.9-.15-1.38.02-.12.15-.2.27-.13l.58.38.14.15a9 9 0 0 1 1.87 1.67c.23.28.35.22.47-.15.06-.2.11-.43.16-.65.03-.1 0-.21-.07-.27-.37-.32-.46-.78-.61-1.23-.13-.4-.38-.6-.76-.55-.15.01-.23-.06-.22-.2.02-.38-.08-.8.22-1.12.06-.06.06-.2.06-.29-.02-.4.04-.8.08-1.19.03-.29.02-.3-.27-.36-.27-.05-.34-.13-.27-.38.06-.18.13-.35.07-.57-.05-.26.06-.48.26-.65l.41-.37c.38-.39.61-.86.72-1.41.1-.6.24-1.17.33-1.76.06-.36.2-.66.34-.98.08-.2.24-.3.44-.24.37.1.75.09 1.13.09.23 0 .44.05.65.15.39.18.56.46.61.95.1.98-.14 1.84-.52 2.67-.14.3-.13.52.04.74.68.9.7 1.9.43 2.95-.04.16-.05.3-.02.45.1.64.12 1.28.05 1.93-.03.2 0 .4-.02.6-.02.37.06.7.3.95l.14.17c.25.28.32.62.17.96-.17.38-.2.76-.2 1.16 0 .26-.06.48-.2.7-.26.4-.52.8-.69 1.27a.5.5 0 0 1-.21.27c-.11.07-.18.16-.17.3.03.28-.15.4-.31.52-.22.17-.44.28-.67.04-.06-.06-.13-.06-.16.03-.05.09-.05.2.01.28.07.12.2.15.3.13.34-.08.67-.03.99.1.23.09.33.03.4-.24a1 1 0 0 1 .38-.58l.38-.33c.24-.2.4-.46.44-.8.04-.34.17-.61.38-.85.41-.44.46-.96.23-1.5-.1-.3-.2-.56-.16-.87.03-.33.14-.57.4-.73.5-.3 1.03-.48 1.6-.46a.96.96 0 0 0-.32-.36zm.4.87c.3.41.46.87.46 1.41 0 .07.07.13.15.1.2-.1.33-.28.3-.44-.09-.34-.16-.67-.26-1a.72.72 0 0 0-.2-.3 1.1 1.1 0 0 0-.53-.27c.02.17 0 .38.07.5zm.6 2.65a2.78 2.78 0 0 0-.02-.01l.02.01zm-.13-.42c-.02-.05-.06-.07-.09-.04a.21.21 0 0 0-.02.14c0 .16.1.25.22.3l-.1-.4zm.42.79c.1.04.25.07.3-.03.1-.17-.08-.17-.16-.2-.14-.06-.3-.1-.43-.14.07.15.14.3.29.37zm-34.95 53.95c.17-.27.17-.52.2-.75 0-.07-.06-.14-.13-.15-.07 0-.11.05-.14.12a.49.49 0 0 0-.02.14l.09.64zm84.14-63.65c-.02-.04-.03-.1-.06-.1a4.38 4.38 0 0 0-.34-.24c-.05-.04-.13-.04-.16.04-.01.03 0 .1.02.13.1.16.2.31.41.3.07-.01.12-.05.13-.13zm-17.8 97.28a1.1 1.1 0 0 0-.95.1c-.26.15-.32.12-.5-.16-.12-.2-.25-.33-.47-.36-.13 0-.26-.07-.38-.12a.7.7 0 0 0-.53-.02c-.18.07-.38.11-.58.15-.11.02-.23.01-.3-.1-.17-.26-.4-.28-.66-.27-.09 0-.18 0-.26-.02a.43.43 0 0 1-.36-.3c-.08-.26-.19-.52-.22-.78-.06-.45-.2-.8-.49-1.12-.4-.45-.46-1.5-.17-2.05.16-.3.29-.35.6-.24.12.04.25.09.38.11.38.07.52.2.7-.4.15-.45.44-.7.85-.74a1 1 0 0 0 .77-.52c.1-.16.27-.28.35-.45.25-.46.64-.69 1.08-.81.13-.04.23-.1.33-.22.23-.3.49-.58.66-.93.08-.15.2-.28.31-.4.14-.14.34-.17.5-.06.09.06.2.12.26.22.28.53.75.76 1.21 1.03l.1.08c.07.1.08.2 0 .26-.23.2-.54.27-.63.63-.02.06-.16.1-.24.12-.15.05-.23.14-.21.32.01.22-.26.28-.22.52.04.2.15.36.25.53.04.06.08.12.1.2.04.48.3.8.63 1.08.05.05.09.12.1.19a.29.29 0 0 1-.05.2.24.24 0 0 1-.17.08c-.51-.01-.72.34-.8.84a1.8 1.8 0 0 1-.68 1.23c-.17.13-.22.3-.16.52.04.12.08.27.04.36-.15.4-.2.8-.2 1.3zm-8.58-1.33c-.02-.27-.28-.29-.4-.44a.19.19 0 0 1-.03-.2c.14-.25.5-.29.63-.06.15.28.24.59.47.82.13.14.07.3-.14.37-.19.06-.26.16-.31.35-.1.41-.1.84-.1 1.26-.01 1.03-.03.88-.88.92a.55.55 0 0 1-.48-.19c-.4-.44-.85-.81-1.3-1.18-.07-.06-.15-.12-.2-.2-.27-.46-.65-.82-.98-1.23-.17-.2-.29-.43-.37-.7a4 4 0 0 0-.9-1.65c-.29-.3-.46-.66-.58-1.06-.15-.47-.39-.86-.8-1.06-.15-.08-.24-.22-.32-.37-.25-.42-.52-.79-.92-1.07-.3-.2-.53-.53-.78-.81a.85.85 0 0 1-.2-.46c-.03-.2.12-.4.26-.32.48.24 1 .28 1.5.33.21.02.37.19.48.38.29.53.68.92 1.17 1.21.17.1.33.26.44.44.28.44.67.65 1.1.8.17.06.36.06.42.3.02.1.14.1.21.15.32.2.66.39.81.79.04.1.1.15.2.18.27.08.34.28.3.57l-.02.07c-.14.48-.01.66.37.8.17.04.27.16.33.33l.06.14c.19.45.46.77.96.8zm-6.26-128.63c.17-.15.13-.3.17-.4.11-.3.4-.39.61-.2.12.1.23.24.31.38.28.46.42.98.43 1.54.01.1-.01.2-.05.29-.16.39-.21.8-.2 1.24 0 .28-.03.56-.36.6-.08.01-.1.12-.06.19l.14.25c.07.15.16.3.2.46.25.82-.33 1.6-1.1 1.47-.17-.03-.38-.06-.5-.17-.44-.37-.93-.6-1.38-.94-.07-.05-.17-.1-.21-.17-.12-.19-.24-.2-.4-.06-.13.1-.26.06-.35-.07-.28-.42-.59-.8-.57-1.4 0-.48-.13-.6-.55-.69-.09-.02-.18 0-.26-.03-.12-.03-.2-.3-.12-.38.36-.3.5-.81.86-1.12.12-.1.18-.23.14-.4-.08-.36.08-.63.31-.84.35-.32.7-.62 1.2-.52.26.05.48-.08.71-.19.49-.24.82-.06.95.51.04.19.04.38.08.65zm28.86 128.52c-.17-.1-.34.04-.5.05-.36 0-.67-.04-.88-.42-.1-.18-.24-.28-.44-.28a.53.53 0 0 1-.41-.22c-.1-.13-.08-.3.06-.37l.99-.46c.15-.08.3-.1.46-.07.38.07.71.28 1.05.46.17.08.22.3.24.51l-.03.45c-.01.15.03.33.14.4.23.18.37.43.54.67.14.2.34.2.52.02.12-.11.22-.25.32-.38.18-.22.35-.46.64-.52.14-.03.23-.15.31-.27.28-.4.62-.44 1-.19.15.1.34.14.5.25.35.22.7.4 1.13.38.08 0 .17.05.26.08.16.06.27.17.27.38l.03.3.08 4.18c0 .3.04.6.05.9 0 .1 0 .2-.11.25-.1.05-.18.02-.25-.06-.15-.13-.3-.28-.45-.44-.17-.2-.36-.27-.6-.2-.29.07-.57.12-.86.17-.1.02-.22.01-.33 0-.15-.01-.22-.17-.18-.33.07-.29.23-.5.45-.62.18-.1.19-.24.16-.43-.11-.86-.47-1.5-1.27-1.73-.5-.14-.96-.38-1.48-.5-.35-.08-.68-.34-1-.54-.17-.1-.3-.09-.43.05a.68.68 0 0 1-.22.15c-.12.05-.25 0-.3-.11a1.92 1.92 0 0 0-.57-.9c-.07-.06-.04-.22.05-.24l.91-.23c.07 0 .14-.02.15-.14zm4.94-107.13l-.06.04c-.13.21-.13.6-.45.57-.37-.05-.79-.12-.95-.58a1.4 1.4 0 0 0-.5-.69c-.23-.17-.34-.44-.4-.75-.02-.1-.03-.21.05-.27.2-.18.2-.38.12-.6a1 1 0 0 1 .13-.92c.1-.15.1-.26.06-.41-.05-.15-.03-.32.1-.4.3-.15.52-.4.74-.63.06-.07.15-.12.23-.16.12-.06.23-.04.3.08.31.52.71.94 1.14 1.35.11.11.1.27.13.41.02.08.09.13.15.09.06-.02.13-.1.13-.15l-.02-.67c0-.53.09-.66.55-.77.12-.03.21-.01.3.09.13.16.27.32.4.5.19.21.39.34.66.25.34-.13.6-.03.83.28.17.22.41.37.62.56.1.09.22.18.31.29.08.1.12.23-.01.3-.29.16-.39.38-.37.73.02.32-.18.55-.39.75-.19.18-.4.18-.63.1-.19-.06-.23.05-.2.24.02.15-.07.24-.2.26-.18.01-.39 0-.57.1-.12.06-.23-.02-.3-.11-.24-.28-.5-.18-.75-.05-.16.07-.3.2-.47.3-.32.17-.35.16-.68-.13zm2-3.63c-.04 0-.07.04-.05.1.03.16.09.31.24.39h.06c.02 0 .04-.03.04-.05-.01-.16-.17-.41-.28-.44zm.09 1.76c-.03.27.02.47.12.65.01.02.04.03.06.02.02 0 .05-.03.05-.04a.9.9 0 0 0-.23-.63zm-6.12 73.87c.05-.09.1-.17.05-.27-.04-.1-.13-.1-.22-.08-.28.08-.56.14-.84.24-.33.11-.7.14-.97.43-.08.09-.2.08-.31.08l-.67-.01c.07.07.13.18.2.2.33.04.4.35.52.6.12.26.05.49-.04.73-.08.23-.17.46-.23.7-.07.27-.24.48-.4.68-.2.27-.64.06-.68-.24-.02-.22-.03-.44.03-.67.12-.46.12-.47-.28-.67-.17-.09-.22-.24-.24-.41-.02-.13 0-.27.1-.34.31-.24.56-.58.97-.63-.05-.18-.07-.35.1-.47.46-.28.86-.63 1.22-1.05.16-.2.37-.27.6-.27.36 0 .72-.03 1.06-.13.22-.06.44-.05.66.03.29.09.43 0 .5-.32.06-.28.18-.5.35-.71.13-.17.2-.38.26-.6.02-.11.1-.23.16-.32.04-.04.12-.07.18-.06.07.01.09.1.06.17 0 .05-.03.1-.05.14-.04.1-.07.2 0 .28.1.13.2 0 .3-.03.44-.22.74-.6 1.07-.98.42-.5.64-1.07.84-1.68.05-.16.1-.34.05-.51-.16-.52.04-.97.18-1.43.07-.23.14-.24.42-.17.18.04.18.04.17-.21-.01-.08-.02-.16.04-.21.08-.07.16-.05.25-.01.14.07.2.2.2.36 0 .36.13.67.27.99.06.14.1.28.14.42.13.37.13.74-.07 1.07-.2.33-.24.76-.57 1-.12.09-.14.27-.11.41.12.52.02.99-.2 1.44a.9.9 0 0 0-.05.6c.09.35-.07.62-.25.88-.18.25-.26.26-.57.13-.24-.12-.26-.11-.42.16-.06.1-.13.3-.2.23-.28-.28-.44.03-.65.1-.26.08-.53.07-.8 0-.1-.02-.21-.15-.3-.03-.05.05 0 .19-.02.28-.01.07-.06.15-.1.19-.2.13-.3.36-.45.55-.22.3-.5.3-.72-.03-.05-.08-.1-.17-.13-.26-.08-.26-.26-.24-.44-.22l.03-.07zm-31.97-101.02c.2 0 .33.13.44.3.21.35.36.75.46 1.16.12.45.34.8.69 1.07l.16.13c.06.07.13.14.18.22.15.3.15.6-.16.75-.06.04-.11.08-.18.1-.18.1-.26.27-.25.49 0 .2.04.39.08.59.03.17.09.33.12.5.09.45-.08.7-.49.8a.6.6 0 0 1-.13.02c-.54-.04-1 .23-1.43.54l-.62.45c-.21.16-.42.15-.63 0l-.82-.63a.7.7 0 0 1-.23-.27.95.95 0 0 0-.33-.45c-.2-.16-.2-.28-.1-.51.14-.32.3-.63.63-.74.47-.16.47-.6.53-1.02 0-.09-.03-.22-.08-.26-.36-.27-.23-.6-.12-.93.18-.53.47-.9.99-1 .27-.06.5-.21.72-.39.18-.15.33-.3.26-.62-.04-.17.13-.3.3-.3zm6.07 11.74c.07-.02.1-.02.11-.04.1-.1.07-.33.22-.34.14-.02.3.05.45.1.05.02.13.1.14.15.04.41.43.6.49 1.01.02.2.19.33.34.44.27.2.36.5.36.84 0 .45.04.9-.22 1.3-.09.14-.18.28-.34.34l-1.53.5a.47.47 0 0 1-.27 0c-.26-.08-.53.02-.8.01-.23 0-.42.1-.56.32-.2.29-.48.45-.74.65-.23.2-.47.07-.56-.24-.07-.26-.05-.51.05-.73.33-.75.46-1.56.72-2.32.17-.49.3-.97.43-1.46.13-.52.4-1 .6-1.5.05-.11.13-.11.2-.03.08.08.14.15.19-.02v-.06c.11-.36.2-.47.38-.43.27.08.5.36.5.63l-.08.44-.08.44zm15.78 123.83c-.16.09-.35.1-.47.27 0 .23.18.34.28.5.16.23.32.46.3.8 0 .3.21.5.39.67.3.3.27.66.21 1.03a.3.3 0 0 1-.22.26c-.12.05-.21-.02-.3-.12-.05-.06-.12-.14-.14-.24-.06-.23-.19-.3-.4-.3-.15 0-.25-.12-.28-.28a1.7 1.7 0 0 0-.3-.73c-.15-.18-.11-.43-.15-.64-.01-.08-.05-.15-.13-.16-.1-.02-.17.03-.22.12-.08.14-.05.29-.04.44.03.52.04 1.05-.02 1.57-.04.32-.16.44-.43.43-.3-.01-.45-.2-.42-.53.02-.25.06-.5.07-.74.02-.3-.04-.51-.27-.72-.29-.23-.33-.5-.16-.85.16-.34.22-.7.32-1.05.15-.54.36-1.06.43-1.63 0-.09.05-.21.12-.26.37-.24.7-.63 1.2-.49.49.13.97.21 1.46.25.38.03.7-.05.97-.39.1-.1.2-.18.33-.25.04-.03.14 0 .18.03.05.04.08.14.08.19-.07.46-.54.98-.96 1.03-.18.03-.36.03-.53 0-.7-.2-1.38-.09-2.07-.05-.4.02-.65.52-.48.92.1.24.28.38.48.51.08.06.18.03.25-.03.45-.43 1.05-.36 1.56-.57h.07c.1.02.18.07.2.18 0 .06-.05.15-.1.18-.1.07-.23.12-.36.18l.32.06c.08.03.17.09.13.2-.04.1-.14.08-.22.08-.16-.01-.23-.13-.29-.27-.11.16-.23.3-.4.4zm18.8-46.2c.02.03.06.08.06.12-.04.34-.02.64.28.84.1.06.06.18 0 .25-.21.21-.46.36-.73.35-.57 0-.86.34-1.05.87a.78.78 0 0 1-.08.2c-.07.09-.16.11-.25.07l-.71-.4c-.23-.13-.46-.2-.71-.1-.04.02-.1.02-.13.04-.16.07-.39-.17-.46.1-.06.2.18.26.27.38.1.12.07.23-.04.31-.1.09-.23.16-.34.24-.22.15-.33.1-.38-.17l-.02-.15c0-.28-.17-.52-.1-.8.07-.35.37-.56.45-.91.02-.1.14-.13.23-.11.36.1.49-.11.53-.47.01-.12.07-.24.1-.35.14-.43.22-.86.13-1.32-.02-.1-.02-.2-.02-.3.01-.22.23-.35.4-.22.07.05.14.12.2.2.09.1.16.23.24.35.34.48.74.85 1.27 1.06.25.1.46.18.67-.04.05-.05.12-.08.19-.04zm-32.5 50.81l.43-.6a.4.4 0 0 1 .35-.2c.65 0 1.28.1 1.8.6a.8.8 0 0 0 .55.23h.6c.14 0 .28 0 .38-.11.2-.25.41-.25.66-.12.16.08.35.09.52.15.3.1.6.16.92.1.2-.03.4-.04.6.06.03.02.06.08.06.12a.2.2 0 0 1-.06.12c-.16.16-.38.11-.57.17-.03 0-.06.07-.06.1 0 .04.04.1.07.11.06.04.13.07.2.06.58-.1 1.05.35 1.61.4.11.02.19.14.19.28 0 .1-.06.18-.14.25-.07.06-.16.08-.24.02a.45.45 0 0 0-.51-.04c-.2.1-.4 0-.59-.06a2.5 2.5 0 0 0-.8-.1c-.46 0-.92-.08-1.39-.13a1.64 1.64 0 0 1-.74-.32c-.3-.22-.62-.3-.96-.2-.32.07-.62.04-.93-.07-.19-.07-.39-.1-.6-.14-.14-.02-.32-.04-.42-.17-.23-.28-.52-.37-.92-.5zm12.65-18.54zm-.93-2.03c-.03-.15-.03-.31.11-.39.2-.1.24-.27.25-.48l.05-.82c.02-.15.01-.3.04-.44.08-.42.25-.55.62-.5.22.04.43.13.66.1.18-.03.25.07.22.26-.03.28-.06.54.07.8.21.42.03.77-.15 1.11-.05.09-.14.14-.2.21-.26.32-.37.68-.22 1.1.06.16.1.33.17.48.04.1.13.17.22.1.27-.25.51-.22.78 0 .25.2.55.17.85.1.09-.02.17.03.19.15.02.11-.04.2-.13.23-.04.02-.1.02-.13.03-.14.04-.18.13-.12.28.06.13.15.25.18.39.04.19-.05.28-.23.24 0 .21.14.36.18.55.01.04 0 .1-.03.14-.02.02-.09.05-.12.04a3.05 3.05 0 0 1-.47-.26c-.13-.1-.09-.34.08-.41l.32-.1c-.06-.06-.12-.17-.2-.18-.2-.04-.48.04-.34-.38-.13-.13-.18-.53-.47-.19-.02.03-.13 0-.17-.03-.25-.3-.52-.32-.83-.13-.06.05-.17.02-.25.03a5.38 5.38 0 0 1-.93-2.03zm3.4 7.97v-.22c-.01-.15-.17-.3-.29-.25a2 2 0 0 1-.84.2c-.16 0-.2.24-.32.34-.06.05-.13.07-.18.01a.28.28 0 0 1-.06-.12c0-.27.04-.54.22-.7.27-.23.6-.43.9-.63.12-.08.27-.01.36.1.14.19.26.12.4.02.25-.16.46-.4.75-.5.17-.05.17-.26.21-.43.04-.14.16-.18.26-.09.26.24.5.48.51.91 0 .27.1.54.14.8.05.26.05.51-.06.74-.06.1-.12.25-.2.28-.14.04-.14-.15-.2-.25-.05-.09-.12-.18-.2-.1-.07.06-.14.17-.13.25 0 .2.08.4.1.59.02.22-.15.37-.34.31l-.32-.11c-.58-.2-.74-.46-.71-1.15zm20.87-98.03c-.5-.04-.93-.32-1.36-.59-.12-.07-.21-.2-.33-.26a.86.86 0 0 1-.48-.66 2.88 2.88 0 0 0-.43-.93c-.06-.1-.12-.2-.1-.34.01-.08.1-.15.13-.1.39.43.88.43 1.37.47.13.01.26.08.33.21.08.14.19.23.33.22.57-.03 1.02.32 1.5.59.1.06.14.17.15.3.03.63-.36.93-.85 1.07-.08.03-.17.02-.26.02zm25.25 9.96c.6-.06.95.2 1.29.56.39.42.39.76-.17.99-.44.17-.87.4-1.36.2-.15-.05-.3.02-.45.12a.73.73 0 0 1-.43.15c-.4.02-.68-.43-.46-.82.38-.7.85-1.3 1.58-1.2zm-80.55 87.92c0 .66-.41 1.17-.94 1.25-.28.04-.52-.1-.64-.42a3 3 0 0 1-.13-1.62l.2-1.17c.06-.32.2-.4.38-.2.5.56.9 1.17 1.1 1.93.03.1.02.2.03.23zm47.9-93.47c-.17.02-.32.04-.47.04-.06 0-.12-.07-.15-.13-.04-.07-.01-.17.05-.2.37-.11.53-.43.64-.79.08-.26.18-.5.47-.59.3-.08.63-.14.9.07.5.4.92.88.98 1.62.03.35-.12.54-.42.49a7.08 7.08 0 0 1-1.43-.4c-.18-.07-.37-.17-.58-.1zm-39.73-24.91a.68.68 0 0 1-.18-.05c-.1-.04-.17-.1-.16-.21 0-.08.08-.1.14-.13.26-.12.28-.18.1-.3-.22-.17-.3-.43-.42-.66-.1-.16-.08-.33-.06-.5.02-.2.1-.3.3-.31.09 0 .18-.02.27.02.4.15.8.3 1.17.51.33.18.36.44.17.8-.3.55-.74.84-1.33.83zm24.48 101.91a9.75 9.75 0 0 1-.37 1.55c-.1.3-.23.58-.35.88-.08.17-.19.17-.31.02-.4-.47-.66-1.22-.21-1.96.13-.2.24-.42.36-.62a1 1 0 0 1 .35-.35c.27-.16.54.02.53.48zm1.8 14.38c-.27-.2-.44 0-.62.27-.14.21-.27.2-.44.02-.25-.24-.27-.5-.09-.8.09-.13.01-.22-.12-.27a.78.78 0 0 0-.2-.04c-.16-.01-.23-.12-.24-.3v-.74c0-.18.1-.26.27-.18.3.14.64.2.78.63.04.15.2.3.38.2.08-.03.13-.15.23-.1.13.05.12.2.1.32-.02.22.03.38.22.5.11.05.15.17.1.3-.06.17-.18.2-.36.2zm-12.6-8.9c0-.16.07-.28.16-.4.4-.57.94-.62 1.51-.57.22.02.33.3.22.51-.14.28-.28.57-.45.83-.28.43-.63.53-1.05.34-.3-.14-.4-.34-.38-.71zm14.96 25.2c.05.04.12.07.15.13.04.07.01.14-.05.2-.23.19-.48.34-.76.43-.39.14-.74.32-1.01.68-.19.23-.43.34-.7.4-.18.03-.31-.09-.32-.29-.01-.23.03-.47.22-.58.43-.25.8-.63 1.28-.76.39-.1.79-.14 1.19-.21zm6.3-39.92c-.15.2-.3.35-.57.3-.21-.05-.38.07-.5.27l-.16.25c-.1.13-.24.13-.35.03a1.65 1.65 0 0 1-.3-.57.28.28 0 0 1 .02-.2c.13-.23.28-.47.55-.5.18-.02.35-.05.5-.18.25-.24.53-.19.8-.03.08.2.14.42 0 .63zm-18.15-71.5c.13.02.3.03.47.08.24.07.35.3.31.57a.96.96 0 0 1-.38.67.49.49 0 0 1-.57.02c-.18-.12-.34-.3-.51-.46-.07-.06-.07-.19-.01-.27.11-.14.25-.27.31-.46.05-.16.2-.19.38-.15zm12.28 102.98a1.2 1.2 0 0 1 .08-.87c.06-.1.13-.21.26-.19.12.03.1.16.11.25.03.17.12.23.27.28.32.1.31.12.27.46-.01.1-.05.2-.04.29.03.26-.1.35-.3.39-.22.04-.22.23-.18.4.03.12.08.23.12.35.02.07.04.16-.04.18-.06.02-.13-.02-.19-.04-.09.07-.18.12-.29.06-.11-.05-.17-.2-.1-.28.08-.08.16.01.24.05-.01-.46-.1-.9-.21-1.33zm-8.27 9.14c-.31-.05-.63-.21-.96-.2-.04 0-.11-.1-.12-.16-.02-.33.27-.56.52-.4.13.07.22.14.37.1.14-.06.34 0 .45-.08.36-.29.67-.02 1 .04.05.01.11.1.12.16 0 .06-.04.17-.08.18-.42.13-.86.24-1.3.36zm9.5-5.71c.4-.06.74.08 1.09.17.19.04.31.2.38.38.02.06.01.15 0 .21-.04.09-.11.08-.18.07a.7.7 0 0 1-.19-.08c-.5-.3-1.02-.24-1.54-.06-.15.05-.26.11-.35-.06-.1-.23-.03-.48.17-.56a.94.94 0 0 1 .26-.07h.36zm-31.35-136.32c.26 0 .45.04.63.16.15.1.23.32.19.51-.04.2-.2.37-.36.39a1.3 1.3 0 0 1-.77-.16.42.42 0 0 1-.22-.35c-.01-.2.06-.35.2-.43.12-.07.25-.1.33-.12zm23.73 123.8c.02.34-.03.52-.15.62-.36.28-.56.7-.87 1.02-.21.22-.43.43-.7.57-.06.03-.13.04-.17-.03-.03-.06-.04-.16-.02-.2a.67.67 0 0 1 .2-.29c.38-.28.66-.66.97-1.01.18-.19.34-.4.41-.66.03-.1.08-.27.23-.19.1.06.1.2.1.18zm-70.78-23.47c-.05-.02-.14-.04-.21-.08-.22-.11-.25-.4-.06-.53.15-.1.31-.22.48-.26.33-.08.66-.16.96-.3.04-.02.1-.01.12.01.03.03.04.1.03.13a1.5 1.5 0 0 1-1.32 1.03zm30.88-66.9c.14 0 .27.03.34.18.1.2.18.39.26.6.04.1-.02.19-.09.25-.24.2-.52.24-.8.3-.06 0-.15-.06-.16-.1-.07-.38-.05-.75.16-1.07.06-.1.17-.16.29-.16zm41.12 108.44c-.27-.06-.57-.12-.87-.2-.08-.01-.1-.18-.05-.25a.56.56 0 0 1 .53-.24c.13.02.26.07.38.1.48.16.95.27 1.4-.1.02-.03.1 0 .1.02.03.06.05.14.03.2-.09.2-.26.27-.43.3-.35.07-.7.12-1.09.17zm2.89-18.95a1.55 1.55 0 0 1-.22-.28c-.08-.12 0-.31.12-.36.4-.14.71.06.79.52.04.22.06.44.08.66.02.16-.06.22-.26.2l-.13-.06.03.73c0 .06-.07.12-.12.16-.06.03-.14.02-.17-.06-.12-.28-.25-.57-.36-.86-.03-.08-.04-.2.06-.25.04-.03.11 0 .18 0l.19.06a.66.66 0 0 0-.2-.46zm12.56-91.57l.07-.41a.34.34 0 0 1 .37-.24c.15.02.24.11.29.27.1.38 0 .67-.26.92-.16.14-.38.07-.42-.15l-.05-.39zm-16.71 110.83c.4-.03.67.19.9.47.06.07.09.18.04.28-.06.13-.17.16-.28.13-.11-.03-.21-.09-.31-.14l-.55-.28c-.08-.05-.16-.1-.15-.22.01-.1.09-.17.18-.2l.17-.04zm1.59-19.93c-.01.13-.06.24-.17.29-.12.04-.22-.02-.28-.13-.14-.25-.25-.51-.37-.78-.08-.16-.03-.23.18-.29l.2-.01c.3.21.47.5.44.92zm34.26-54.31c-.02-.03-.06-.08-.05-.1.05-.22.1-.44.18-.63.12-.27.35-.35.6-.4.1 0 .22.15.18.26-.02.09-.04.2-.1.25l-.74.62c-.02.01-.05 0-.07 0zm-55.34-46.73l-.23-.08c-.1-.06-.16-.22-.07-.3.21-.2.43-.4.67-.59.09-.06.17.03.2.13.1.37-.22.85-.57.84zm43.37 66.25c0 .05 0 .1-.02.13a.86.86 0 0 1-.2.2c-.32.23-.63.45-.9.75-.04.04-.13.06-.18.04-.07-.04-.06-.13-.02-.2.2-.38.4-.76.85-.85.13-.03.25-.1.37-.15.03 0 .07.05.1.08zm-18.27 49.03c.2-.02.36.03.5.18s.1.4-.07.5c-.23.12-.43.08-.62-.11-.1-.1-.17-.23-.13-.39.06-.17.2-.16.32-.18zm-38.3-100.99c0 .28-.18.41-.4.28-.33-.19-.34-.65 0-.89.09-.06.17-.01.23.07.11.16.18.34.17.54zm45.1 103.63a.98.98 0 0 1-.14.59c-.08.1-.14.25-.3.25-.1 0-.16-.19-.1-.45.04-.2.12-.41.2-.6.02-.06.1-.1.16-.1.05 0 .1.08.14.14.03.05.04.14.04.17zm.57-113.77c.44.53.35 1.02.23 1.5-.01.04-.07.1-.1.09a.29.29 0 0 1-.16-.1.37.37 0 0 1-.04-.2l.07-1.29zm-43.57 2.07l-.23-.12c-.08-.06-.23-.03-.25-.2-.02-.14-.01-.3.1-.4.1-.1.19-.31.37-.22.16.08.19.27.16.45-.03.14-.09.27-.15.49zm45.4 46.9c-.12 0-.23-.04-.28-.16-.08-.22.12-.6.33-.64.12-.01.23.04.27.17.08.25-.1.6-.32.64zm15.22 5.93c-.12.4-.32.74-.7.9-.03.01-.08 0-.11-.02-.03-.03-.06-.1-.05-.12.21-.3.37-.66.73-.8.03-.01.07.02.13.04zm-40.12-64.52c.16 0 .33.01.4.2.02.06 0 .16-.02.21-.11.18-.27.16-.42.1-.14-.05-.33-.05-.38-.26-.03-.13.17-.25.42-.25zm-11.59 106.19c-.04.2-.08.5-.15.78-.03.12-.02.34-.2.3-.1-.05 0-.23.01-.35l.13-.93c.01-.07.06-.16.13-.14.04.02.06.12.08.18v.16zm2.3-100h.31c.08 0 .13.07.1.15a.28.28 0 0 1-.1.16c-.15.08-.3 0-.45-.02l-.46-.06c-.03 0-.07-.06-.07-.1 0-.03.04-.1.07-.1.2-.06.38-.08.6-.04zm-10.6 9.23c.18 0 .35-.03.48.1.02.02.04.09.04.13 0 .04-.04.1-.07.1-.27.07-.52 0-.77-.07-.03 0-.06-.08-.05-.12 0-.04.05-.1.08-.1.1-.03.22-.03.28-.04zm12.39 101.83c-.03.03-.06.07-.1.08-.03.01-.09 0-.12-.02-.27-.23-.37-.43-.3-.6.01-.03.08-.06.1-.05.24.07.37.26.43.52l-.01.07zm31.17-101.14c0 .02-.01.05-.03.06-.04.02-.1.04-.12.03a1.93 1.93 0 0 1-.5-.84l.03-.06c.01-.02.04-.03.05-.02.26.19.46.44.58.76v.07zm-49.6 1.72c-.08-.03-.12-.1-.1-.16.1-.28.3-.4.6-.34.03 0 .08.04.1.08.05.08 0 .13-.07.17-.17.11-.33.25-.53.25zm26.8 102.75c-.02.16-.09.24-.21.25-.15.01-.27-.1-.26-.26 0-.15.08-.23.2-.24.15-.02.26.11.26.25zm34.44-49.75v.07c-.11.22-.27.4-.47.5-.03.03-.09 0-.12-.02-.02-.02-.03-.1-.02-.13.1-.23.25-.4.46-.5.02-.01.05-.02.06-.01l.09.09zm12.63-13.25c.04.01.1 0 .12.03.15.18.25.4.3.64 0 .04-.04.1-.08.11-.03.01-.09 0-.11-.02a.95.95 0 0 1-.3-.64c0-.04.04-.08.07-.12zm-32.52 67.7c-.08 0-.15-.04-.15-.11 0-.06.05-.15.1-.17.13-.06.28-.1.43-.13.05 0 .13.05.12.13 0 .06-.04.14-.08.18-.13.1-.28.1-.42.1zm-42.3-106.07c-.01-.13.04-.25.16-.27.12-.02.23.05.24.2l-.01.5c-.2-.07-.37-.17-.4-.43zm20.45 100.2c-.04.06-.06.11-.1.13-.03.02-.1.02-.12 0-.08-.09-.16-.17-.22-.28-.1-.16-.05-.36.07-.38.14-.02.2.1.24.2l.13.33zm-5.68-125.04h-.14c-.14-.01-.26-.1-.23-.19.05-.1.14-.15.23-.14.15.02.3.07.45.11.03 0 .06.09.05.12a.16.16 0 0 1-.1.09h-.26zm44.03 78.7c0 .02.02.05.01.07-.1.29-.27.5-.51.63-.01.01-.04 0-.05-.02-.02-.01-.04-.05-.03-.05.1-.28.22-.54.47-.7l.1.06zm-32.74-73.2c-.07-.02-.13-.08-.11-.16.02-.17.16-.28.28-.37.03-.03.12 0 .17.02.06.03.07.12.04.19-.09.17-.19.32-.38.32zm-13.6 4.26c0 .13-.05.25-.18.27-.1 0-.2-.14-.18-.27.02-.13.06-.26.19-.26s.16.14.17.26zm12.28 113.76c.18.07.21.37.06.53-.03.02-.1.03-.12.01-.13-.1-.16-.35-.05-.5.01-.04.06-.04.1-.04zm21.86 7.32a.15.15 0 0 1-.13-.14c-.01-.19.03-.35.18-.43.06-.04.14-.02.17.05.06.18 0 .34-.1.46-.03.04-.08.04-.12.06zm4.17-5.47l-.33-.04c-.14-.02-.26-.14-.2-.2.07-.08.15-.05.23-.04l.32.06c.05.02.15.06.15.1 0 .14-.1.1-.17.12zm-31.75-113.3c-.04.06-.07.12-.1.13-.03 0-.1-.03-.1-.06a7.66 7.66 0 0 1-.12-.56c0-.02.06-.07.1-.07.03-.02.1 0 .1.03l.12.54zm8.25-2.7c0 .14-.08.22-.2.24-.1 0-.17-.06-.17-.17-.01-.14.05-.24.18-.24.1-.01.17.05.2.16zm63.62 58.31c.04.02.09.03.1.06.08.13.02.24-.07.33-.06.07-.15.1-.24.06a.08.08 0 0 1-.05-.06c-.01-.15.1-.34.26-.39zm-84.02-53.15c.12.04.26.04.34.17v.06c0 .02-.01.05-.03.06-.18.07-.34-.03-.5-.09-.02 0-.04-.07-.03-.1.01-.04.05-.08.1-.1h.12zm37.1 84.05a.4.4 0 0 1-.27.36c-.02 0-.1-.03-.1-.06-.02-.2.1-.3.23-.38.03-.02.08 0 .12.02l.02.06zm-1.68 26.8c-.02.1-.04.2-.16.18-.06-.01-.11-.06-.17-.1-.03-.02-.08-.05-.09-.1 0-.08.06-.1.12-.12.2-.06.3 0 .3.14zm8.2-.8c-.02.03-.02.06-.04.07-.13.06-.33-.07-.36-.24 0-.03.05-.1.07-.1.15-.01.26.06.32.2.02.03.01.05.01.08zm-4.51-.87c.11-.01.21.02.29.1.02.04.03.1.02.14a.16.16 0 0 1-.1.08c-.1.02-.2-.02-.28-.11-.03-.03-.04-.1-.03-.13.02-.03.06-.06.1-.08zm41.78-55.35c.05.01.12.02.17.06.1.06.2.11.18.26 0 .02-.06.06-.1.06-.19 0-.3-.1-.32-.26 0-.04.04-.07.07-.12zm-45.14 23.43c-.08-.03-.14-.08-.12-.16.03-.13.14-.18.26-.16.07 0 .13.07.1.15-.03.13-.13.18-.24.17zm37.92-24.85c0 .05-.02.11-.04.13a.3.3 0 0 1-.4-.12c-.01-.03-.01-.06 0-.07.05-.03.11-.07.17-.07.1 0 .22 0 .27.13zm-59.43 59.1c.15.07.22.21.23.38 0 .04-.04.08-.06.11h-.06a3.71 3.71 0 0 1-.21-.36c-.01-.02.02-.08.04-.12h.06zM1050 4737.45c.09.01.18.04.18.15.01.13-.1.14-.18.13-.1-.02-.18-.06-.17-.19.01-.08.1-.09.17-.09zm6.38-2.66c.03.01.08.01.11.03.07.03.1.1.08.17-.02.04-.08.06-.12.07a.18.18 0 0 1-.12-.02c-.04-.03-.08-.07-.08-.11-.01-.08.04-.13.13-.14zm19.6 98.5c.1 0 .14.07.15.17 0 .1-.04.2-.14.18-.1-.02-.13-.11-.13-.21 0-.08.04-.13.11-.15zm16.6 1.42c.07.02.11.07.1.16 0 .1-.05.17-.15.16-.07 0-.12-.06-.11-.14 0-.11.06-.17.16-.18zm-.4 3.7c0 .1-.05.14-.12.15-.1 0-.23 0-.26-.15-.02-.08.04-.13.11-.14.12-.02.22.01.27.13zm-2.64.11l.16.04.04.05c0 .04-.01.1-.04.12-.11.08-.23.12-.35.04-.03 0-.04-.03-.04-.05 0-.05 0-.11.03-.12.07-.04.15-.06.2-.08zm4.55.2c0 .12-.07.16-.16.18-.13.02-.25-.08-.22-.18.02-.1.1-.14.19-.15.1 0 .16.04.2.15zm-33.87-115.12c0 .07 0 .15-.07.18-.09.03-.13-.04-.14-.1-.01-.09 0-.17.08-.2s.11.03.13.12zm77.04 58.12c.08.03.12.11.11.21-.01.09-.07.14-.14.13-.12 0-.14-.1-.13-.2.02-.09.06-.14.16-.14zm-47.58 62.85c-.04.1-.11.12-.2.1-.08-.03-.12-.1-.07-.17.03-.05.1-.07.16-.08.07 0 .12.05.11.15zm-23.36-9.91l-.12.06c-.1-.03-.21-.08-.2-.23 0-.02.07-.06.1-.06.11.03.18.1.22.23zm-13.88-101.52c-.07-.02-.12-.08-.1-.16.02-.08.09-.11.15-.08.03.02.08.07.08.1 0 .1-.05.14-.13.14zm34.27 98.53c-.04.07-.1.09-.16.06-.07-.04-.1-.11-.04-.17.03-.02.1-.01.16 0 .02 0 .02.07.04.11zm12.8-54.74c.08.04.1.1.07.17-.06.1-.15.12-.23.1-.06-.03-.07-.08-.05-.13.05-.1.12-.14.21-.14zm12.44 11.69c0 .1-.04.17-.12.21-.03.01-.09 0-.1-.02-.05-.06-.02-.14.03-.18.04-.04.1-.05.16-.07l.03.06zm-23.3 56.01c-.02.08-.07.13-.14.12-.08-.01-.1-.08-.08-.16.03-.07.1-.1.17-.07.03 0 .04.07.06.11zm12.09-45.05c.06.05.07.11.06.18-.02.08-.07.14-.14.1-.07-.02-.08-.1-.06-.17.02-.07.06-.11.14-.1zm-11.48-64.4c.03.03.09.05.09.08.01.08-.04.14-.11.12-.03 0-.06-.07-.06-.1 0-.04.05-.07.08-.1zm29.45 9.34c-.07-.04-.1-.1-.07-.17 0-.03.06-.07.09-.06.07.01.1.08.08.16-.02.03-.06.04-.1.07zm-30.34 102.21c0 .1-.14.23-.23.18-.05-.02-.06-.08-.02-.12.04-.05.1-.1.16-.12.04-.03.08 0 .09.06zm45.43-64.22c-.1 0-.16-.07-.2-.15-.02-.02-.03-.07-.02-.07.04-.02.09-.05.11-.04.06.04.1.09.15.14.03.05.01.1-.04.12zm-58.94-60.24c-.02.08-.07.14-.14.13-.08-.01-.1-.1-.07-.16.02-.08.09-.11.16-.09.03.02.03.08.05.12zm-1.81 113.68c.07 0 .12.04.12.12 0 .03-.05.09-.08.09-.07 0-.12-.04-.11-.12 0-.04.04-.06.07-.1zm14.25-4.8c-.03-.04-.08-.07-.08-.1 0-.09.07-.12.13-.08.03 0 .05.08.05.1-.01.04-.07.06-.1.08z"/></defs><g><g transform="translate(-1009 -4703)"><use fill="#ef5b5b" xlink:href="#jx7qa"/></g></g></svg>