<svg xmlns="http://www.w3.org/2000/svg" xmlns:xlink="http://www.w3.org/1999/xlink" width="118" height="157" viewBox="0 0 118 157"><defs><path id="i9z8a" d="M459.12 4812.29c.34-.03.65-.23 1-.25.25 0 .34.1.42.3.08.27.2.54.25.82.07.36.3.46.56.55.1.04.23.07.26-.07.04-.14.02-.3-.11-.4-.07-.04-.17-.04-.25-.07-.15-.07-.29-.2-.3-.37-.02-.3-.03-.6-.23-.85-.06-.07-.02-.2.08-.23.26-.08.5-.16.55-.51.02-.09.1-.1.17-.1.71-.06 1-.7 1.35-1.24.07-.12 0-.22-.08-.3a4.2 4.2 0 0 1-.85-1.56c-.14-.4-.3-.77-.24-1.24.02-.23-.16-.5-.26-.74s-.18-.5-.31-.73c-.33-.6-.4-1.24-.37-1.93.01-.18.04-.37-.15-.43-.4-.12-.44-.49-.51-.87 0 .35-.1.64-.22.94-.09.26-.23.43-.49.41-.34-.02-.55.19-.7.49-.26.51-.71.83-1 1.32a.71.71 0 0 1-.32.27c-.28.1-.53.24-.75.45-.12.11-.29.17-.44.1-.24-.12-.46-.23-.73-.2l-.1-.01c-.33-.54-.96-.65-1.3-1.16-.19-.28-.35-.53-.25-.89.07-.23.04-.52.39-.48.1 0 .4-.59.38-.7-.02-.12-.11-.21-.18-.17-.24.16-.65-.02-.76.43-.02.09-.1.1-.17.09-.08-.03-.1-.1-.1-.19 0-.34.04-.68.22-.98.11-.2.19-.34.01-.55-.15-.17-.1-.39.02-.58l.21-.31c0-.18-.15-.14-.22-.21-.25-.24-.29-.41-.1-.73.1-.18.15-.26-.04-.41-.3-.25-.34-.62-.23-1 .08-.27.13-.53.02-.82-.1-.27-.04-.53.1-.77.11-.16.1-.28-.03-.45-.25-.34-.23-.53 0-.9.04-.07.09-.13.1-.2.1-.48.1-.48.5-.54l.3-.05c.08-.1-.04-.17-.04-.25-.02-.37.07-.45.39-.35.3.1.31.1.3-.27 0-.23.1-.34.29-.42.2-.08.4-.1.6-.07.15.01.3.1.44-.05-.02-.2-.15-.13-.24-.15-.24-.05-.29-.26-.3-.47-.03-.23.11-.39.3-.4.25-.03.4-.13.48-.4.04-.16.2-.2.32-.28.14-.08.14-.18.07-.32-.17-.34-.15-.45.06-.54.2-.1.33 0 .42.33l.02.17a.31.31 0 0 0 .28-.3c-.01-.23.01-.5-.17-.66-.17-.16-.14-.23.02-.33.1-.06.21-.12.31-.2.12-.08.24-.13.3.03.12.25.43.18.52.46.03.1.13.09.22.04l.46-.22c-.27-.33-.21-.62.13-.85.04-.04.08-.12.1-.2.12-.76.67-1.22 1.05-1.8.1-.16.22-.11.37-.04.27.15.36.06.32-.27l-.08-.27c-.05-.17-.05-.36.05-.45.37-.37.47-1.12 1.25-1-.4-.33-.38-.32-.23-.72.15-.42.3-.8.55-1.16.1-.15.21-.36-.01-.55-.2-.17-.1-.4.05-.49.33-.18.27-.72.66-.84.05-.01.03-.1.02-.15-.1-.63.05-1.16.46-1.6.06-.07.15-.12.15-.22-.02-.34.18-.48.41-.59a.7.7 0 0 0 .42-.67c-.03-.44.25-.7.39-1.03.08-.22.28-.41.55-.22.06.03.12.1.16 0 .1-.27.39-.46.31-.85-.22.04-.3.3-.46.4-.14.09-.29.19-.41 0-.1-.16.08-.68.25-.71.4-.1.75-.25.88-.75.02-.05.07-.08.1-.12.31-.4.37-.38.58.1.02.05.04.1.15.1-.08-.27.04-.53-.09-.82-.11-.23.04-.4.2-.52.22-.15.18-.3.03-.45-.3.1-.5.38-.73.58-.16.14-.23.36-.48.19-.06-.04-.13.03-.18.08-.38.46-.87.52-1.4.5-.06 0-.15.03-.18.08-.33.52-1.05.53-1.3 1.17-.02.06-.1.12-.15.15-.12.05-.23-.01-.2-.16.12-.41.1-.94.57-1.14.05-.01.1-.05.13-.1.24-.38.52-.61.96-.42.04.02.12 0 .15-.04.3-.38.77-.49 1.14-.76.08-.06.12-.13.12-.27-.3.14-.54-.2-.86-.06-.1.03-.15-.18-.13-.32.05-.43.33-.7.63-.8.18-.08.1-.4.28-.3.2.1.26.34.32.55l.05.2c.1-.34.23-.6.12-.9a.63.63 0 0 1 .14-.65c.13-.15.23-.32.3-.52.05-.11.15-.16.27-.13.13.03.2.12.2.28 0 .27-.02.58-.2.76-.3.31-.22.61-.06 1 .14-.2.25-.36.26-.58 0-.2.1-.3.27-.23.16.05.36.18.27.33-.22.34 0 .66-.05.98v.23c.1-.12.25-.2.2-.42-.07-.37.2-.56.36-.79.12-.2.32-.04.5-.09l.16-.77c-.26.28-.48.41-.74.44-.21.03-.33-.08-.25-.28.08-.17.02-.32.05-.48.03-.32.06-.65.35-.86.15-.12.24-.32.37-.47.17-.18.4-.17.54.04.14.18.2.47.51.3.06-.04.14.09.18.18.06.15.1.32.32.4-.14-.35-.23-.68-.56-.81-.18-.07-.21-.17-.1-.4.14-.26.37-.43.55-.65.2-.26.28-.49.18-.83-.1-.33-.02-.41.29-.39.29.02.5.24.76.34.14.06.1.21.07.35-.11.42-.1.42.25.67.17-.14.22-.38.35-.56.07-.09.15-.16.27-.13.12.02.14.14.17.25.05.19.06.38.02.57-.03.18-.06.36.01.57.17-.17.08-.36.11-.5.07-.3.2-.55.36-.77.07-.08.2-.2.26-.1.23.28.22.04.25-.12.01-.1 0-.2.12-.26.27.07.38.39.59.59.2-.52.2-.52-.13-.83a.6.6 0 0 1-.22-.5c0-.22 0-.33.3-.36.36-.02.6-.03.72.42.08-.14.26-.12.2-.37-.1-.4-.08-.4.29-.4.23-.01.3-.1.23-.33-.03-.11-.08-.15-.18-.13l-.41.07c-.16.03-.25-.02-.33-.2-.19-.43-.2-.44.2-.7.11-.08.23-.15.37-.17.5-.1.67.04.72.67.29-.08.56-.04.7.35.04-.28-.07-.49-.1-.72 0-.13-.03-.28.1-.35.14-.07.23.05.33.13.13.1.12.31.24.44.26-.15.4-.31.19-.62-.1-.14-.08-.3.07-.4.12-.07.14-.22.21-.32.18-.28.52-.28.71 0 .15.2.27.4.54.2.11-.1.24-.04.33.07.07.1.04.22 0 .33-.08.23-.23.42-.37.62-.2.3-.34.62-.34 1 0 .3-.06.57-.23.81-.05.07-.1.17 0 .3a.93.93 0 0 0 .26-.48c.27-1.01.91-1.8 1.35-2.71.06-.14.16-.27.32-.23.16.04.2.21.22.37.02.12.04.29-.01.38-.2.4-.01.77-.01 1.14.12.02.18-.02.2-.1.21-.75.67-1.4.75-2.2.02-.19.09-.28.27-.2.07.02.14.05.2.03.17-.06.34-.15.48.04.11.16.3.28.32.5.05.36-.15.65-.57.8-.03.1.02.15.08.19.28.15.34.36.17.64a.5.5 0 0 0-.08.16c-.02.13.06.17.15.19.1.03.2-.02.18-.14-.03-.3.01-.61.06-.91.06-.46.28-.63.67-.62.2 0 .35.1.38.3.05.34.23.36.46.34.28-.03.5.1.68.32.25.31.6.49.84.8.26.34.26.56-.05.81-.06.05-.13.07-.18.12-.57.62-1.22.92-2.03.54.21.34.47.58.78.7.2.08.3.2.34.44.04.33.3.41.52.17.11-.12.23-.12.37-.12.4.02.72.25 1.1.55-.04-.44.38-.58.35-.98 0-.12.11-.15.2-.11.11.04.23.08.33.15.25.19.49.42.8.5.22.06.3.25.23.5-.06.28-.24.43-.47.43-.22 0-.38-.18-.6-.22.26.46.75.48 1.1.76.11.08.27.07.31.27.04.2.19.26.32.2.54-.26 1 .1 1.5.2.18.04.34.13.54.06.27-.11.56 0 .8.14.3.17.59.34.84.57.57.53 1.17 1.02 1.68 1.61.27.3.56.58.72.98.04.12.13.28.26.15.2-.2.29-.04.37.1.14.22.3.43.5.58.16.12.3.49.57.12.05-.07.17.02.22.1l.32.45c.22.3.35.68.74.8.23.08.33.37.38.65.1.54.12 1.1.37 1.6.1.2.03.46-.03.68-.6 2-2.28 3.48-4.36 3.1a1.25 1.25 0 0 1-.6-.27c-.23-.2-.5-.3-.77-.34a5.1 5.1 0 0 1-2.2-.89c-.15-.09-.28-.18-.44-.13-.25.09-.4-.02-.49-.27-.02-.07-.08-.17-.14-.15-.36.19-.6-.18-.9-.26-.42-.1-.75-.45-.94-.91-.12-.3-.3-.46-.64-.36.26.53.48 1.04.74 1.53.15.26.36.46.63.58.1.05.28.07.3.19.17.58.69.69 1.06 1 .32.27.47.7.53 1.08.08.52.13 1.12-.3 1.55-.14.15-.13.31-.04.46.2.37.21.8.39 1.19.12.25.05.56.06.85.02.24.08.45.21.63.15.18.3.34.54.23.21-.08.36.02.5.2.04.05.09.1.13.17.35.66.98.88 1.56 1.15.46.21.98-.3.9-.84 0-.1-.03-.2-.05-.28-.1-.47-.1-.5-.5-.36-.25.08-.4.02-.54-.19-.24-.36-.47-.7-.68-1.08-.14-.24-.2-.5.08-.7.16-.12.19-.32.24-.5.07-.26.22-.32.44-.23.25.1.53.23.7.47.31.42.75.57 1.18.73.2.08.43.13.62.29.3.25.6.47 1.03.3.25-.08.52.2.87.15a5.76 5.76 0 0 0-.66-1.62 2.96 2.96 0 0 1-.49-1.38c-.02-.29.03-.51.3-.66.28-.16.5-.4.65-.72.08-.18.21-.33.39-.36.76-.11 1.09-.8 1.5-1.39.04-.07.07-.17.12-.25.17-.27.27-.3.5-.1.18.18.38.23.6.27.37.06.68.23.81.63.1.32.52.28.5.71.19-.18.17-.34.12-.48a1.4 1.4 0 0 1 .13-1.1c.28-.5.2-1.04.25-1.57.02-.28-.1-.55-.38-.62-.4-.1-.45-.43-.43-.8.01-.22.05-.46.12-.68.22-.8.26-1.62.28-2.44 0-.36-.08-.62-.34-.84a3.8 3.8 0 0 1-.71-.76c-.05-.08-.09-.17-.02-.26.06-.07.13-.05.2-.03l.14.06c.54.44 1.17.41 1.79.4.28 0 .55.03.81.13.28.1.48.27.56.6.07.28.18.55.46.65.14.05.16.2.18.33l.09.57c.12.58.12.58-.38.7-.12.04-.24.08-.36.08-.57.01-.82.5-1.08.94a.48.48 0 0 0 .07.58c.4.41.7.89.92 1.44.1.23.26.36.5.22.1-.05.21-.1.3.02.08.12.16.04.27.03.7-.13 1.21-.42 1.08-1.37-.02-.12.06-.25.08-.39.07-.65.32-1.12.97-1.2.13 0 .23-.09.25-.24.03-.3.22-.37.42-.51.67-.47 1.38-.89 1.95-1.52.03-.04.07-.1.11-.12l1.58-.82c.23-.1.4.03.5.25.05.09.1.18.2.1.08-.07.1-.16.07-.27-.03-.16-.27-.24-.14-.45.1-.16.24-.32.38-.46.2-.19.3-.13.31.16 0 .05.06.1.08.13.14 0 .14-.1.15-.2a.98.98 0 0 1 .66-.92c.37-.16.77-.08 1.23-.26-.2.5-.55.39-.82.54.16.3.14.63.05.94-.1.4.06.76.09 1.14 0 .12.1.2.22.18.16-.01.26.07.37.18.21.2.33.16.35-.17.02-.5.27-.78.6-1 .27-.16.6-.2.85-.4.4.18.85-.02 1.25.17.37.17.35.16.6-.2a3.4 3.4 0 0 1 1.47-1.3c.44-.18.44-.18.66.28.05.1.1.2.17.3.22.27.29.55 0 .83-.1.09-.13.23-.14.37 0 .23.05.41.24.54.13.08.26.1.38-.01.16-.14.27-.3.2-.55-.01-.1-.04-.18-.04-.28-.02-.24.05-.4.3-.45.82-.21 1.08-.71.84-1.64a4.27 4.27 0 0 0-.34-.96 2 2 0 0 1-.26-1.08c-.42.1-.76 0-.94-.5-.04-.13-.2-.18-.26.04-.05.18-.17.24-.25.07-.2-.42-.48-.78-.65-1.23-.22-.57.05-.99.26-1.43.1-.2.3-.23.42-.03.43.73 1.13 1.18 1.55 1.92.11.21.25.41.4.66.12-.1.2-.28.39-.3a.7.7 0 0 1 .45.12c.32.21.69.29 1.04.28.69-.02 1.26.32 1.86.6.37.16.75.28 1.02.64.2.25.31.5.3.82v.4c-.07.62.03 1.2.35 1.72.27.46.25.94.06 1.42a2 2 0 0 0-.18.72c0 .45.24.7.63.68.5-.04.57.04.6.6.02.25.03.5.02.75-.02.44-.18.82-.53 1.06-.2.12-.3.28-.35.52-.11.47-.37.83-.73 1.08-.27.19-.53.37-.8.54-.42.26-.74.63-.82 1.18-.08.53-.35.9-.72 1.22-.82.73-1.56 1.56-2.16 2.54-.32.52-.75.98-1.42.83-.2-.04-.37.07-.36.3.04 1.11-.43 2.09-.64 3.13-.08.35-.1.68-.01 1.03.1.42.06.83-.12 1.22-.1.2-.16.43-.25.63-.07.18-.07.32.08.46.2.19.22.46.2.74-.02.17-.05.35-.09.5-.17.62-.12 1.22.07 1.82.1.31.16.63.14.96-.02.26-.04.5-.35.54-.2.02-.19.2-.14.35.06.16.15.3.23.46.38.64.49 1.29.04 1.97-.24.35-.4.77-.74 1.02-.14.11-.18.27-.16.46.02.15.04.31-.01.46-.08.19 0 .33.1.46.15.2.28.4.44.58.4.44.52.98.56 1.57.03.43-.16.78-.38 1.1a7.4 7.4 0 0 1-.7.92c-.32.35-.56.73-.71 1.2-.15.43-.28.86-.4 1.3-.1.38-.1.76-.05 1.14.1.8.44 1.08 1.14.94.91-.18 1.12.06.98 1.09l-.06.39c-.16.9-.9 1.26-1.61.8l-.04-.03c-.19-.12-.38-.35-.6-.13-.22.2-.07.46 0 .7.05.21.12.43.2.64.2.43.74.75 1.16.72.19-.01.33-.12.45-.27.24-.32.6-.44.94-.57.28-.12.44.03.4.36-.07.67-.16 1.33-.68 1.8-.29.27-.44.69-.64 1.05a.65.65 0 0 0-.07.44l.34 1.63c.05.27.17.4.44.34.16-.04.34-.02.5 0 .28.02.48.17.5.48.03.7.55.96.97 1.28.27.2.55.37.9.42.26.03.35.26.32.55-.1.79-.56 1.28-1.26 1.35-.14.01-.3.03-.4-.08-.25-.26-.4-.12-.58.12-.23.3-.42.32-.73.12a1.3 1.3 0 0 0-.43-.17c-.24-.06-.4-.22-.5-.47-.2-.5-.45-.63-.89-.35-.33.2-.57.24-.94.04-.36-.2-.76.06-1.07.36-.08.08-.13.18-.2.27-.23.26-.5.32-.8.16a3.1 3.1 0 0 1-.84-.66c-.18.14-.1.34-.13.49-.03.12-.06.24-.17.25-.13.03-.21-.07-.23-.19-.12-.78-.78-1.1-1.13-1.67-.12-.2-.34-.15-.53-.15-.35 0-.69.03-.95-.33-.14-.21-.36-.15-.55.02-.42.39-.42.38-.88.08-.3-.19-.56-.18-.72.12-.28.49-.7.73-1.13.98-.17.08-.3.16-.35.37-.09.31-.35.41-.57.57-.36.27-.36.28-.25.74l.08.34c.08.41-.22.85-.61.88-.2 0-.31-.14-.38-.33-.1-.29-.25-.55-.45-.77-.2-.23-.32-.22-.38.1-.05.33-.18.58-.37.85-.23.3-.32.74-.16 1.13.13.32.09.55-.14.77-.16.16-.2.39-.24.62-.05.25-.02.46.23.55.27.1.34.34.39.63.05.4.13.46.5.5h.42c.12.01.25.04.33.14.5.53.79 1.15.68 1.95-.04.3-.22.36-.44.38-.1 0-.16.06-.16.18 0 .1.06.13.12.16.2.1.43.19.4.46-.03.29-.14.56-.32.77-.2.22-.44.17-.6-.1l-.1-.26c-.04-.07-.05-.16-.13-.18a7.25 7.25 0 0 1-.9 2.4c-.1.14-.13.31-.2.46-.12.26-.11.44.14.62.23.16.34.47.48.74.06.13.03.36.3.24.09-.04.14.15.13.26 0 .19-.05.38-.09.56-.1.45-.05.86.18 1.27.3.52.55 1.06.83 1.6.15.3-.03.52-.18.7-.14.2-.3.37-.46.55a.58.58 0 0 1-.98-.1c-.27-.5-.67-.81-1.12-1.07-.35-.2-.72-.34-.8-.88-.03-.26-.31-.27-.49-.37-.41-.25-.84-.37-1.28-.1-.23.14-.43.11-.6-.1a.5.5 0 0 0-.09-.08c-.57-.57-1.19-1-2.03-.9-.55.04-1.08-.22-1.6-.46-.3-.15-.6-.27-.94-.06-.13.08-.26.03-.38-.07-.2-.18-.42-.33-.56-.58-.21-.35-.5-.58-.83-.77-.38-.21-.82-.33-1.12-.7-.04-.05-.12-.09-.19-.09-.32 0-.48-.24-.63-.51-.05-.1-.1-.21-.18-.28-.18-.13-.32-.44-.6-.05-.12.18-.47.24-.73.1-.34-.16-.54.05-.82.23-.45.3-.89.61-1.32.93-.17.13-.37.1-.55.06-.28-.07-.39-.25-.37-.58l.03-.45c-.01-.2-.06-.35-.23-.43-.26-.1-.45-.33-.74-.38-.27-.05-.3-.24-.08-.44.36-.34.69-.75 1.3-.81-.38-.29-.68-.31-.97-.18-.51.22-.87-.25-1.32-.33-.03-.26-.17-.45-.3-.64-.05-.06-.09-.16-.15-.15-.3.1-.66.07-.88.4-.14.2-.28.39-.38.61-.13.31-.27.55-.58.68-.25.1-.4.37-.39.7v.45c.02.42-.09.75-.47.93-.28.13-.44.42-.66.64-.14.14-.12.34-.13.54 0 .33.02.65-.06.97-.06.26-.16.47-.41.55-.3.1-.43.35-.43.7 0 .21-.02.41-.2.55-.2.15-.19.33-.09.55.18.38.4.75.43 1.21.01.22.2.35.38.45.2.1.41.2.62.28.14.05.26.13.25.32 0 .2-.1.31-.26.38a.66.66 0 0 1-.45.03 1.51 1.51 0 0 0-1.6.5c-.31.34-.72.55-1 .93-.09.12-.24.27-.4.12-.14-.12-.08-.32-.01-.48.03-.1.1-.19.14-.26-.39-.39-.85-.6-1.34-.7-.3-.07-.42-.01-.48.32-.04.2-.08.35-.28.32-.22-.03-.2-.21-.17-.4l-.05-.14c-.21.19-.5.2-.73.43.17.28.54.34.58.74-.2.13-.31-.14-.49-.1-.07.13.09.2.08.33 0 .08-.01.22-.05.2-.22-.13-.38.15-.58.1-.12-.05-.2-.16-.25-.28-.14-.32-.4-.48-.66-.66-.18.17-.15.4-.1.58.09.31.2.63.37.88.2.29.39.54.45.94.05.32.37.55.68.65.3.09.47.26.55.6.08.36.43.47.65.7.19.2.28.48.5.65.06.04.05.15-.01.2a.17.17 0 0 1-.14.04.24.24 0 0 1-.14-.06c-.33-.4-.77-.6-1.15-.9l-.03.12c-.02.66-.02.66-.5.33a.53.53 0 0 0-.24-.12c-.11-.02-.26-.05-.31.1-.05.12.03.22.1.3l.16.15c.13.18.08.29-.08.42-.14.12-.41.07-.44.32-.01.18.06.37.1.56.1.33.03.65 0 .97 0 .12-.04.24-.18.23-.12-.01-.18-.12-.2-.23-.02-.22.08-.48-.19-.61-.1-.02-.11.1-.15.18-.04.1-.09.22-.22.19-.09-.03-.11-.13-.14-.22l-.15-.43c-.05-.1-.12-.11-.22-.06-.34.18-.53.07-.58-.32a.73.73 0 0 1 .01-.28c.08-.27-.02-.43-.2-.59-.45-.38-.45-.82-.03-1.25.06-.06.18-.03.18-.22-.42.11-.6-.16-.75-.54-.24-.64-.61-1.2-.97-1.76-.07.1.02.18 0 .28-.02.13-.1.2-.22.17-.25-.06-.44-.59-.28-.83.08-.12.18-.23.03-.31-.72-.38-.65-1.05-.52-1.72.08-.47-.07-.96.11-1.42.03-.07 0-.15-.05-.21a6.67 6.67 0 0 0-1.85-1.74c-.35-.22-.76-.47-1.22-.3a.35.35 0 0 1-.15 0c-.11 0-.22-.03-.22-.18 0-.12.1-.14.18-.16l.15-.01c.12-.02.29-.05.28-.2-.03-.2-.19-.28-.36-.21-.53.19-.81-.32-1.14-.58-.21-.16-.4-.4-.6-.6-.24-.24-.5-.45-.38-.87.03-.1-.04-.18-.1-.24-.17-.18-.28-.4-.31-.66-.03-.2-.14-.33-.31-.3-.2.02-.12.22-.13.35 0 .07-.01.12-.07.15-.13.01-.16-.11-.22-.2-.05-.08-.1-.17-.2-.1-.32.21-.43-.06-.55-.3-.26-.51-.29-.78-.13-1.27-.25-.1-.46-.03-.68.1-.18.1-.37.2-.57.27-.3.12-.37.29-.2.56.14.24.13.43.06.69-.17.6-.1 1.31.54 1.6.3.13.55.4.81.6.2.16.27.4.34.64l.32.97c.22.73.8 1.08 1.3 1.53.15.15.36.02.55.03.15 0 .3-.03.46-.04.34 0 .53.27.34.6-.17.3-.08.44.15.51.7.24 1.26.8 1.93 1.1.46.22.66.76.89 1.23.08.15-.02.33-.1.48-.09.14-.2.15-.32.06-.07-.05-.16-.1-.18-.19-.2-.47-.65-.54-.98-.8a.24.24 0 0 0-.14-.06c-.3.05-.43.32-.53.58-.1.23-.24.5.03.73.12.1.25.2.35.34.32.37.26.95-.15 1.2-.2.13-.3.28-.3.54 0 .18-.06.34-.2.45-.16.12-.26.3-.35.5-.2.36-.35.41-.67.2-.15-.11-.22-.09-.28.04-.2.4-.44.8-.23 1.3.03.08.04.18.03.28-.03.59-.36.8-.85.55-.12-.06-.22-.17-.34-.26-.08-.07-.15-.2-.23-.22-.7-.15-1.16-.83-1.85-1.01-.32-.09-.46-.57-.32-.91.03-.09.1-.22.16-.21.4.1.79-.31 1.19 0 .24.18.51.2.8.15.59-.11 1.17-.27 1.75-.45.13-.04.25-.12.26-.25 0-.3.1-.5.34-.66.06-.03.05-.13.04-.2-.1-.62-.44-1.13-.55-1.74-.01-.05-.07-.07-.12-.09-.46-.08-.79-.32-.88-.86-.03-.14-.1-.27-.24-.26-.43.03-.64-.34-.84-.64-.24-.36-.5-.58-.9-.53-.24.04-.44-.06-.6-.23-.22-.21-.45-.4-.6-.65-.27-.43-.72-.66-.97-1.1-.02-.06-.08-.12-.12-.1-.5.07-.51-.48-.75-.73-.24-.27-.48-.53-.53-.95-.06-.4-.23-.76-.35-1.15-.02-.05-.03-.13-.07-.15-.47-.3-.9-.71-1.45-.83-.33-.07-.58.18-.72.47-.21.4-.51.6-.91.67-.49.08-.76.5-1.08.84-.53.55-.74.66-1.41.3-.59-.31-1.25-.24-1.83-.51-.12-.06-.24 0-.34.09l-.58.38a.58.58 0 0 0-.3.66c.05.3.03.6.17.9.17.34-.05 1.03-.36 1.25-.67.47-1.26 1.08-2.06 1.29-.27.06-.43.27-.59.53-.34.6-.72 1.17-1.09 1.75-.4.63-.38 1 .15 1.5.2.2.18.37.04.56a.74.74 0 0 1-.2.2c-.44.28-.66.76-.8 1.29-.07.28-.21.4-.46.45-.45.07-.74.35-.9.84-.1.38-.34.52-.73.57-.57.09-1.13-.02-1.7.02-.36.02-.7.08-1.03.3-.34.2-.7.35-.97.7-.24.3-.71.16-1-.21-.2-.25-.31-.55-.43-.85-.25-.63-.68-.94-1.22-.68-.53.25-1.05.15-1.58.15-.4 0-.52-.15-.39-.56.17-.52.09-1.03.11-1.55 0-.12 0-.24-.14-.32-.83-.44-.83-.96-.44-1.77.49-.99.51-2.07.74-3.1.09-.37-.1-.83-.17-1.24-.03-.17-.1-.34-.06-.5.15-.57-.08-1.02-.31-1.46-.26-.49-.18-.81.29-1 .11-.04.24-.05.36-.06.17-.01.27-.1.36-.27.26-.51.57-.64 1.07-.44.4.15.8.25 1.21.24.08 0 .15.02.21 0 .57-.28 1.12-.02 1.67.1.53.1 1.05.14 1.59.08.54-.05 1.1.08 1.64.15.26.03.51.05.78.02.28-.01.44-.18.5-.47.08-.5.17-.98.23-1.48.07-.67.12-1.34.16-2 .02-.38-.08-.74 0-1.13a.49.49 0 0 0-.3-.54c-.5-.17-.68-.69-.96-1.09-.07-.1-.1-.2-.06-.32.12-.3-.1-.35-.23-.53-.39-.5-1-.55-1.45-.92a.77.77 0 0 0-.74-.15c-.27.08-.71-.34-.68-.65.02-.2 0-.33-.13-.47-.2-.23-.08-.42.09-.57.23-.22.52-.31.81-.36.2-.03.4-.08.58-.2.28-.15.6-.2.87.08.23.25.48.3.8.22.23-.05.47-.12.73-.07.01-.5 0-.94-.25-1.34a.33.33 0 0 1-.03-.05c-.15-.34-.14-.65.03-.74.2-.12.7.02.82.23.22.35.92.65 1.28.52.14-.04.32-.1.33-.31.04-.54.4-.72.78-.88.25-.1.53-.18.75-.38.16-.16.29-.32.24-.6-.03-.1 0-.22 0-.33.08-.8.25-1.06.95-1.23.55-.15.95-.6 1.46-.83.1-.05.14-.27.32-.26.18.02.2-.07.1-.23-.07-.1 0-.17.06-.24a3.93 3.93 0 0 0 1.08-2.75c0-.28.18-.51.4-.66.13.14.04.24.02.35-.01.1-.08.24-.04.27.36.36.17.8.15 1.21-.01.05.04.1.1.22.07-.24.1-.43.2-.6.08-.16.08-.34.01-.54-.27-.68.06-1.3.74-1.32.35-.01.68-.19 1.02-.1.14.03.22-.1.3-.2.43-.53.83-.61 1.34-.25.24.17.34.1.42-.16.04-.1.07-.25.15-.3.4-.24.3-.6.15-.92-.1-.23-.1-.39.04-.57.1-.11.09-.23.01-.36-.26-.44-.25-.95-.27-1.44-.01-.35-.05-.67-.42-.76-.18-.03-.22-.17-.2-.34 0-.4-.08-.8-.1-1.2-.04-.74.16-1.44.4-2.12.13-.33.4-.5.7-.53.45-.05.78-.25 1-.7.17-.35.51-.5.82-.68.15-.09.25-.01.23.17-.03.26 0 .5.05.74a.85.85 0 0 1-.11.6c-.19.35-.17.74-.2 1.12 0 .27.1.4.34.39.2-.02.39 0 .46.26.06.27-.04.48-.24.65-.11.09-.22.18-.36.2-.05 0-.13.03-.13.06-.08.58-.6.84-.8 1.33-.14.32 0 .69-.13 1.03.08 0 .15 0 .22.04.38.16.43.27.27.72-.05.16.07.79.15.79.32-.03.54.31.9.2.26-.09.4.18.27.47-.07.14-.25.21-.23.42.34.03.6-.03.83-.28a.55.55 0 0 1 .27-.16c.28-.09.5-.24.68-.5.14-.2.33-.3.54-.14.3.23.42.1.5-.23.03-.14.11-.31.29-.26.18.05.36.12.41.37.07.37 0 .53-.44.81.4 0 .49.28.62.53.19.35.29.32.6.1.42-.3.83-.63 1.33-.73.47-.1.86-.34 1.24-.67.64-.6 1.42-.85 2.23-.96.3-.04.6.04.82.29.11.13.2.3-.01.42-.15.1-.13.2-.07.33.06.15.16.18.3.16.63-.06 1.17-.4 1.23-1.08.02-.26.16-.42.4-.43.3 0 .48-.2.64-.43.28-.41.41-.87.35-1.4-.04-.36-.08-.73-.1-1.09a3.5 3.5 0 0 1 .31-1.94c.13-.22.17-.47.23-.7.18-.8.66-1.28 1.37-1.36.11-.01.2.01.27.12.26.46.65.8.85 1.3.13.33.37.44.62.39.34-.08.51-.28.56-.66v-.35c-.03-.64.05-1.26.13-1.9.01-.11.11-.25-.05-.37-.16.11-.32.2-.55.07-.37-.18-.53-.5-.56-.89-.03-.37-.05-.75-.1-1.13-.02-.26 0-.57.24-.65.46-.16.83-.53 1.3-.69.42-.14.94.05 1.28-.41.02-.04.1-.03.14-.03.44.11.9.16 1.3.38.3.18.62.21.94.2.48 0 .48 0 .56-.55.03-.2.07-.34.3-.3.33.08.67-.12.87-.3.32-.33.61-.38.98-.26.11.03.27.07.3-.1.04-.19-.09-.3-.22-.34a.45.45 0 0 0-.3 0c-.42.16-.68-.15-1-.35-.36-.23-.43-.55-.26-1-.26.12-.38.38-.6.34-.42-.07-.82.21-1.23 0-.05-.04-.16.03-.24.05-.73.24-1.44.52-2.15.83a31 31 0 0 1-2.02.75c-.16.05-.33.08-.46.21-.07.08-.18.14-.28.05-.09-.08 0-.17.02-.25.03-.16.02-.33-.1-.42-.11-.1-.17.08-.25.13a.35.35 0 0 1-.43-.04c-.13-.12 0-.25.03-.36.1-.24.09-.53-.1-.62-.34-.15-.6-.47-.94-.58-.28-.1-.3-.29-.37-.54-.2-.7.16-1.34.16-2.03 0-.45-.04-.87-.2-1.27-.06-.2-.13-.38-.1-.6.04-.31-.02-.6-.12-.9a1.59 1.59 0 0 1 .26-1.6c.18-.22.47-.37.49-.75.01-.2.2-.24.37-.24.2.02.38-.03.51-.2.24-.31.52-.58.7-.94.33-.7.76-1.31 1.22-1.92.31-.4.68-.79.8-1.32.12-.45.3-.74.73-.86.35-.11.37-.19.3-.59-.01-.15-.01-.3.01-.45a1.3 1.3 0 0 0-.2-.87c-.2-.34-.52-.56-.76-.86-.1-.13-.34-.33-.48-.22-.22.17-.37.1-.56 0-.16-.08-.36-.1-.5.02-.2.16-.35.14-.57.04-.28-.13-.5 0-.58.25-.14.47-.38.83-.8 1.04a.36.36 0 0 0-.18.47c.15.44 0 .82-.25 1.12-.28.33-.16.63-.03.94.04.1.13.19.18.28.2.38.18.6-.14.84-.15.12-.26.25-.34.41-.38.74-.72 1.49-1.5 1.82-.03 0-.04.07-.06.09-.44.2-.77.56-1.15.86-.18.16-.33.3-.47.5-.3.4-.34 1.02-.9 1.2-.07.01-.06.16-.07.26-.02.4-.22.65-.64.7.23.38.2.74.1 1.1-.08.24-.07.48-.02.73.03.2.05.4-.18.47-.18.05-.2.2-.18.36.04.63.04 1.26.15 1.89.07.45.28.68.65.77.2.04.3.14.37.34.05.12.15.2.24.29.32.33.47.8.7 1.2.1.17.03.39-.05.55-.17.36-.33.71-.7.89.09.09.16.04.22.05.17.01.23.11.15.27-.23.42-.5.92-.89 1.07-.37.15-.63.43-.96.6-.22.12-.37.27-.36.65 0 .68-.14 1.36-.18 2.04-.03.38-.06.74-.15 1.12-.07.32-.16.67-.11 1.1.24-.28.26-.56.35-.8.08-.23.1-.52.44-.6-.14.9-.43 1.69-.63 2.5l-.02.04c-.06.11-.1.29-.25.26-.15-.04-.12-.2-.11-.34 0-.13.09-.26-.02-.43l-.22.6c-.17.54-.17.55-.7.54l-.62-.02c-.51.01-.92.47-.92 1.02 0 .8 0 .8-.72.83-.28 0-.53.17-.82.1-.22-.04-.42-.08-.33-.42.02-.08 0-.15-.07-.19-.09-.05-.16 0-.24.07-.1.09-.08.2-.03.3.07.14.17.31.06.43-.35.36-.38.83-.44 1.3-.01.1-.05.18-.1.26-.02.07-.07.15-.15.12-.36-.16-.8.02-1.1-.34-.07-.08-.17-.16-.27-.04-.18.18-.25.02-.29-.13-.02-.15 0-.3 0-.48-.66-.02-1.05-.4-1.18-1.11a5.32 5.32 0 0 0-.04-.22zm37.06 18.73c-.06-.12-.14-.12-.23-.08-.34.14-.7.2-1.05.26-.26.04-.49.13-.72.26-.3.16-.6.29-.84.53-.36-.17-.6.24-.92.24-.31.01-.5.23-.7.45-.18.2-.25.56-.6.55-.07 0-.06.06-.06.12-.05.36-.09.7.16 1.02.1.13.17.24.33.22.18 0 .36 0 .55-.08.31-.1.65-.25.99-.07.39.2.86.07 1.1-.3.2-.3.35-.65.62-.9.32-.3.3-.36-.04-.63l-.09-.06c-.12-.1-.27-.2-.23-.4.05-.24.23-.27.4-.3.12-.02.3.02.35-.06.24-.32.6-.42.9-.64l.08-.13zm-22.75-18.27l-.3.58c-.05.1-.02.18.07.23.1.06.23.06.25-.07.03-.24.13-.46-.02-.74zm-5.46-10.8c.25.13.5.29.77.41.1.06.26.12.31-.05.05-.17-.1-.22-.22-.24-.28-.02-.56-.1-.86-.13zm55.31-64.06c.41-.2.43-.21.3-.61a.95.95 0 0 1 .14-.81c.14-.25.34-.34.57-.21.18.1.35.14.54.15.34.03.62.12.61.54.59.08.96-.3 1.37-.61.13-.1.3-.24.43-.15.45.32.7-.09 1-.3.22-.17.34-.5.67-.47.11 0 .16-.13.2-.24.07-.15.14-.25.32-.22.25.04.3-.18.26-.37-.13-.6.18-.95.58-1.23.19-.12.38-.25.48-.48a.27.27 0 0 1 .26-.17c.17 0 .3-.1.42-.19.87-.6 2.1-.05 2.34 1.07l.14.55c.06.21.09.42-.05.6-.11.16-.15.28 0 .44.14.14.02.3-.08.4-.24.22-.41.51-.56.82-.11.25-.28.5-.13.79-.07.03-.1.07-.13.06-.42-.21-.76-.08-1.05.3-.54.7-1.28.93-2.05 1.08-.16.03-.32.06-.43.2-.47.68-1.22.93-1.8 1.43-.08.06-.19.15-.24.12-.4-.18-.51.17-.71.42-.25.31-.5.6-.88.76-.3.13-.56.44-.75.76l-.45.7c-.34.55-.83.69-1.38.64-.07.1.01.17.07.24.2.2.15.4 0 .6-.2.23-.39.44-.4.78-.01.11-.09.23-.2.25-.37.08-.4.34-.3.72-.42.03-.59-.44-.96-.49-.06.3.11.58-.01.88-.19.45-.24.5-.58.14l-.1-.06c-.08.12.02.2.06.3.25.62.2 1.08-.23 1.54-.11.13-.21.19-.23.39-.01.2-.17.23-.31.12a.92.92 0 0 1-.34-.42c-.04-.15-.08-.3-.19-.41-.13.36-.14.36.04.62.22.3.35.64.31 1.05-.02.17-.02.36-.2.43-.2.08-.27-.1-.36-.24-.03-.06-.07-.13-.2-.1.1.29.34.5.34.81 0 .3-.21.46-.61.44.34.5.02.84-.2 1.23-.21.34-.47.33-.8.2.34.31.46.62.22 1.06-.08.15-.1.36-.1.56.01.18-.05.38-.18.46-.49.3-.42.9-.64 1.35-.24.5-.29 1.03-.16 1.57.01.08.04.17.01.23-.27.67.06 1.31.07 1.97 0 .36.1.72.28 1.04.14.22.24.47.29.74.11.6.44 1.03.84 1.4.29.27.53.6.9.76.22.1.25.32.1.52-.15.23-.34.43-.52.63-.09.1-.2.09-.28 0l-.3-.32c-.06-.07-.12-.08-.21 0-.3.26-.6.3-.86.03-.25-.26-.43-.27-.63.04-.12.19-.27.14-.4.02l-.16-.16c-.24-.28-.42-.59-.89-.44-.36.12-.64-.29-.7-.72-.06-.45 0-.8.42-.93 0-.1-.03-.14-.08-.16-.45-.1-.66-.45-.73-.92-.03-.28-.12-.41-.4-.34-.37.1-.34-.27-.4-.53-.2.01-.18.26-.31.34-.35.24-.86.1-1.07-.34a3.14 3.14 0 0 1-.14-2.13c.06-.29.25-.5.57-.47.37.03.6-.12.65-.6.03-.29.14-.58.26-.86.14-.34.09-.6-.14-.87-.38-.44-.36-.69.07-1.08a.9.9 0 0 1 .26-.19c.28-.1.32-.38.33-.64.04-.82.56-1.34 1.32-1.29 0-.43.05-.85.2-1.3a1.37 1.37 0 0 1-.8-.73c-.1-.2-.13-.4.15-.5.37-.15.57-.6.96-.74.06-.02.08-.17.1-.26.06-.23.18-.4.34-.56.06-.05.15-.1.15-.15-.03-.4.23-.49.49-.54l-.04-.15c-.09-.14-.34-.2-.25-.44.09-.22.3-.14.47-.17.08-.02.17-.03.27-.14a.98.98 0 0 1-.47-.7c-.03-.22-.01-.42.27-.42.25 0 .44-.2.68-.28-.11-.28-.3-.17-.45-.17-.29.02-.37-.13-.25-.42.04-.12.11-.23.16-.35.05-.16.16-.37-.15-.33-.1.01-.14-.07-.17-.17-.11-.3-.1-.6.01-.9.12-.3.43-.35.62-.08.07.1.09.28.25.24.14-.01.26-.1.33-.24.08-.12.14-.26.19-.4.18-.43.37-.56.76-.53.52.05.69-.13.73-.72.04-.48.15-.93.62-1.1.14-.04.2-.11.23-.26.1-.65.54-.95 1.03-1.18.36-.19.73-.33.83-.85.04-.18.23-.28.38-.38.14-.1.28-.22.47-.11.22.12.07.32.06.51zm-55.34-26.21c.48-.37.49-.37.82.01.26.29.5.59.69.94.12.2.2.42.1.65-.13.36-.13.76-.26 1.11-.12.31 0 .54.13.77.1-.24.03-.5.12-.76.16-.47.34-.53.67-.18.05.05.1.12.12.18.2.67.53 1.31.35 2.06l-.04.22c-.02.36.04.5.34.53.53.06.79.4.91.94.06.25.22.4.4.57.43.41.88.72 1.46.77a.3.3 0 0 1 .17.11c.24.29.11 1.3-.19 1.48-.07.04-.17.08-.25.06-.53-.18-.9.16-1.3.46-.27.2-.56.33-.57.77-.01.15-.18.23-.3.31-.19.14-.27.32-.26.58.03.65-.14 1.3-.1 1.95 0 .38-.04.4-.4.4-.26 0-.28.12-.27.36.02.88-.02 1.76-.16 2.63-.07.49-.07.49-.5.59-.16.04-.3.1-.23.3.07.24-.05.35-.19.48a.8.8 0 0 0-.24.56l-.06 1.54c0 .26 0 .52-.16.71-.21.28-.22.6-.19.93.03.23.03.46-.05.68-.15.45-.64.64-.98.39a.29.29 0 0 1-.1-.25c.02-.46-.23-.77-.52-1-.6-.5-.53-.91.25-1.14.07-.01.14 0 .17-.1-.13-.2-.31-.1-.47-.08-.42.09-.8.14-.95-.46-.05-.2-.26-.24-.42-.3-.3-.15-.49-.38-.63-.72a4.04 4.04 0 0 1-.33-1.71.6.6 0 0 1 .35-.54c.17-.09.34-.03.45.15.04.06.06.14.15.1.42-.2.81-.01 1.2.1l.2.01c-.08-.22-.25-.2-.38-.25-.25-.07-.52-.07-.73-.26-.24-.21-.22-.44.05-.56.37-.15.68-.46 1.1-.45.18 0 .3-.17.45-.38-.3 0-.52.13-.75-.02-.12-.08-.23.04-.32.13-.27.27-.6.38-.95.4-.21.02-.43.03-.65.12-.28.12-.47 0-.5-.28-.07-.47-.13-.95-.16-1.43-.03-.44.1-.59.48-.62.37-.04.68-.28 1.05-.3.1 0 .14-.08.19-.17.17-.32.3-.7.65-.86.07-.03.06-.12.08-.2.12-.55.6-.69 1.02-.55.2.06.39.18.58-.05-.1-.4-.73-.3-.61-.91l-.6.44c-.18.13-.3.1-.45-.08a1.43 1.43 0 0 1-.3-1.03c-.14-.11-.34.12-.46-.1-.1-.14-.1-.32-.18-.5-.13.08-.12.22-.12.34 0 .53-.15 1.06.12 1.58.1.18.01.41-.22.39-.28-.02-.3.15-.35.37-.17.75-1.09 1.07-1.6.57-.1-.09-.16-.23-.13-.35.08-.3-.04-.43-.25-.55-.23-.14-.26-.44-.36-.68-.06-.16.02-.3.17-.36l.34-.07c-.06-.13-.15-.13-.24-.15-.63-.2-.97-.74-1.24-1.36a.57.57 0 0 1 .03-.5c.13-.26.04-.43-.12-.61-.1-.1-.18-.23-.25-.36-.05-.1-.1-.21 0-.31.09-.1.2-.07.28 0 .17.14.34.26.55.3.07.02.14.04.2-.03-.04-.16-.23-.11-.3-.24-.21-.37-.6-.65-.29-1.2.09-.14.09-.4.16-.6-.18-.05-.18.1-.22.19-.06.13-.1.28-.17.41-.07.15-.18.26-.34.24-.16-.02-.2-.18-.23-.33-.04-.3-.08-.6-.22-.89a2.26 2.26 0 0 1-.23-1.16c.01-.19-.02-.38-.1-.56-.08-.2-.07-.37.12-.5.17-.09.13-.24.07-.38a1.18 1.18 0 0 1-.1-.56c.01-.1.02-.2.12-.23.1-.03.17.01.21.1l.18.31c.05-.23-.04-.36-.06-.51-.03-.17-.01-.36.12-.4.19-.06.27-.2.37-.35.15-.21.26-.18.4.06.1.2.13.44.34.6.12-.2.01-.39.02-.57 0-.14.02-.28.15-.33.15-.07.2.07.26.19.19.36.3.4.6.2.17-.12.3-.28.47-.37.2-.13.46-.29.67-.05.2.22.25.54.18.86a.64.64 0 0 1-.51.5c-.08.03-.17-.01-.26 0-.15 0-.27.05-.35.2-.16.25-.31.5-.63.61.21.15.33.03.44-.02.15-.07.3-.13.46-.11.27.02.37.14.25.4-.13.27-.08.37.14.54.27.21.3.62.44.94l-.15-1.06c-.03-.27-.07-.55.05-.8.23-.47.46-.94.6-1.45.07-.23.2-.27.4-.16.53.27.8.73.88 1.33.05.38.12.76.13 1.14 0 .64.25 1.24.2 1.88 0 .06 0 .14.03.17.42.44.48 1.09.75 1.62 0 .02.02.02.07.05.04-.14-.02-.26-.07-.36-.47-1.03-.5-2.15-.57-3.25-.05-.67-.1-1.34-.17-2-.05-.47-.03-.96.23-1.39.13-.2.11-.47.13-.72 0-.28.1-.52.29-.71.16-.16.3-.16.43.05.12.18.23.38.23.62l.03.58zm-27.96 113.37c-.03-.24.13-.35.25-.47.44-.49.9-.95 1.23-1.55.25-.46.62-.71 1.13-.64.4.06.7-.07.84-.54-.1-.07-.15.04-.21.09-.39.32-.45.32-.83-.05-.1-.1-.17-.23-.3-.18-.27.08-.46.03-.65-.21-.1-.13-.22.02-.32.07-.35.19-.65 0-.7-.44 0-.19.1-.28.22-.35.28-.2.57-.35.84-.56.43-.32.53-.83.3-1.3-.09-.18-.2-.1-.31-.05-.1.05-.21.09-.28-.04-.07-.12.03-.21.1-.3l.2-.26c.15-.17.29-.34.08-.58-.05-.05-.08-.14-.03-.2.07-.1.16-.07.23-.01.4.34.84 0 1.25.07.12.01.13-.12.16-.24.08-.4-.02-.8.14-1.18.05-.1-.02-.17-.12-.21-.72-.3-.92-.84-.6-1.6l.17-.41c-.39.2-.73.3-1.06.42-.19.05-.33.17-.53.05-.03-.02-.11-.01-.14.02-.12.12-.24.28-.37.06-.14-.22-.26-.47-.13-.75.08-.18.13-.36.23-.51.35-.5.2-1 .08-1.51-.03-.11-.1-.17-.2-.13-.1.03-.18.12-.14.25.02.08.12.14.15.22.14.35 0 .6-.35.57-.13-.01-.13.07-.17.15-.06.12-.14.25-.28.19-.17-.08-.12-.25-.09-.4.04-.18.1-.37.17-.54.1-.22.03-.36-.14-.49-.15.11-.23.29-.31.45-.07.15-.16.28-.32.23-.14-.05-.32-.1-.33-.32-.01-.16.08-.33.22-.35.35-.07.5-.43.78-.61s.2-.6.4-.87c-.2-.04-.26.07-.32.2-.15.3-.4.39-.7.39-.09 0-.24-.09-.2-.2.18-.38.07-.86.42-1.19.36-.34.3-.65-.17-.83-.36-.13-.43-.53-.7-.74-.06-.05-.03-.18.01-.27.11-.24.3-.48.5-.53.24-.06.24.3.32.49.1.21.14.48.42.58-.38-.41-.05-.84-.07-1.26v-.05c.58-.42.45-1.23.83-1.76.25-.35.37-.48.77-.4.42.08.82-.05 1.23-.12.2-.04.43-.13.55.12.13.25.1.55-.09.75-.24.29-.42.66-.76.85-.1.06-.24.2-.16.31.17.25-.01.4-.14.72.82-.49 1.57-.27 2.32-.27.47 0 .71.4.48.86-.4.76-.48 1.68-1.02 2.36-.06.08-.11.17-.06.27.19.37 0 .47-.29.53-.08 0-.17.04-.22.14.01.13.11.13.2.11.56-.12.92.22 1.28.63.38.44.59.92.6 1.53.02.42.27.74.43 1.1.03.1.1.16.19.18.59.16.77.73 1 1.24.06.16.09.33.2.47.2.25.36.5.22.87-.05.12.04.22.1.31.24.34.26.66-.01.98-.07.09-.15.2-.03.3.08.07.17 0 .23-.06.26-.24.57-.28.88-.24a1 1 0 0 1 .8.86c.07.54.05 1.08-.34 1.5-.19.19-.26.5-.56.57-.06.02-.1.14-.15.22-.21.38-.18.46.2.51h.1c.16.02.33.02.38.23.06.22-.07.36-.2.5-.47.46-1.03.7-1.65.7-.4-.01-.78.18-1.18.06-.1-.04-.1.08-.12.14-.12.29-.3.28-.52.15-.21-.14-.4-.09-.63 0-.3.11-.65.34-.98-.06-.19-.23-.74 0-.86.31-.24.59-.24.58-.8.46-.36-.07-.71-.13-.96.24-.28.44-.63.42-1.03.25zm-21.65-36.61c.3.07.55-.09.8-.26a.4.4 0 0 0 .17-.2c.08-.27-.35-.16-.24-.43.06-.15.19-.28-.02-.42a.93.93 0 0 1-.37-.67c-.03-.21-.15-.28-.37-.3-.4-.01-.78-.1-1.16.14-.14.1-.31.07-.38-.14-.08-.2-.04-.42.16-.47.48-.12.91-.34 1.37-.5.2-.08.44-.04.68-.02-.04-.06-.05-.1-.07-.1-.46-.23-.49-.4-.11-.75.12-.1.27-.17.38-.37-.23.02-.34-.14-.48-.27-.23-.25-.48-.27-.74-.06-.2.16-.44.24-.65.35-.15.08-.3.1-.45 0a.65.65 0 0 0-.55-.07c-.14.05-.29.06-.3-.18 0-.23.15-.43.33-.43.1 0 .18.1.3.05.1-.18-.08-.27-.12-.4-.08-.29-.06-.32.22-.3l.15.01c.06-.15.1-.32.05-.45-.1-.24 0-.38.13-.55.24-.37.53-.45.72-.08.19.37.5.35.74.53.07-.16 0-.28-.08-.32-.32-.16-.38-.56-.61-.8-.16-.17-.09-.38-.01-.54.07-.16.22-.12.36-.09.53.1.86.53 1.22.9.1.1.15.24.27.33.49.42.57.76.36 1.41-.03.12-.07.22.02.32.1.11.14.25.16.4.02.11.05.2.16.2.13 0 .17-.1.19-.22 0-.06 0-.13.02-.18.1-.44.18-.47.6-.22.16-.3.1-.63.06-.95-.03-.25-.17-.57.1-.73.3-.18.42.21.6.4.16.18.19.48.4.64.03-.05.08-.09.07-.1-.16-.7.33-.9.73-1.17.15-.1.25-.06.34.1.12.23.28.43.38.77.13-.23.02-.36 0-.5-.02-.13-.02-.26.09-.36.12-.11.26-.07.39 0s.22.18.3.3c.14.21.28.17.35-.03.13-.33.28-.43.6-.27.29.14.45-.01.48-.37v-.29c-.04-.24-.03-.44.24-.54.24-.1.42-.12.56.16.09.17.26.25.33.44.16.42.17.41.53.22.1-.07.19-.16.28-.25a.5.5 0 0 1 .37-.17c.09 0 .17.02.22.11.06.11-.02.18-.08.25-.35.4-.35.4-.47.77.5.1.54.16.48.74-.02.2-.05.36.2.36.14 0 .23.06.25.22.04.17.1.25.25.1.13-.12.22-.02.28.11.16.32.32.65.2 1.04-.03.12-.06.22.08.27.32.12.26.4.16.61-.2.4-.3.88-.74 1.06-.12.06-.13.15-.14.28-.07.58-.42.94-.8 1.3-.1.08-.19.09-.27.02-.1-.08-.19-.18-.29-.28-.36.41-.7.9-1.15 1.24-.15.12-.28.28-.45.28-.74.03-1.2.57-1.67 1.09-.46.5-1.15.64-1.76.37-.27-.12-.54-.26-.84-.29a.85.85 0 0 1-.59-.32c-.48-.64-1.12-.7-1.78-.64-.28.02-.55-.05-.82.05-.21.07-.34-.06-.35-.3 0-.19-.07-.38.03-.6zm54.62-74.24c-.3-.59-.2-.84.37-.91.27-.04.55-.04.83-.07.12-.01.26-.07.26-.23-.02-.15-.12-.26-.3-.25a5.4 5.4 0 0 0-2.4.59c-.12.07-.24.14-.38.04s-.3-.11-.45-.1c-.32.05-.54-.18-.7-.41-.18-.29-.29-.64-.42-.98-.05-.12.01-.22.09-.31l.42-.5c.27-.31.26-.44-.06-.66-.18-.12-.38-.2-.56-.3-.15-.09-.37-.12-.35-.36.02-.27.19-.46.43-.51.19-.04.38-.04.57-.04.25 0 .38-.11.39-.4 0-.2.01-.4.04-.58.07-.33.25-.4.5-.21.17.13.23.33.3.52.05.11.07.26.24.32.12-.26.06-.56.12-.82.03-.16-.06-.27-.2-.26-.25 0-.34-.15-.35-.4 0-.29.09-.53.3-.7.1-.09.23 0 .33.08.45.4.84.85 1.18 1.36.09.14.08.28.08.44 0 .41.1.46.43.26.12-.08.23-.17.36-.23.35-.15.53-.04.58.38.04.36.11.72.22 1.06.02.07.04.14.2.18 0-.6.1-1.17.05-1.75-.03-.5-.03-1.01.3-1.41.32-.4.89-.33 1 .19.12.53.2 1.1-.19 1.58a.6.6 0 0 0-.16.41c.01.2-.07.46.2.52.23.05.35-.1.43-.32l.36-.96.09-.2c.24-.6.3-.61.78-.28.06.04.13.1.19.09.2-.04.24.09.23.26-.02.3.14.4.37.44l1.61.41c.3.07.53.25.75.49.21.24.28.49.23.83-.07.44-.22.88-.04 1.35.1.22-.03.46-.24.57a.8.8 0 0 0-.41.48c-.14.42-.4.72-.73.94-.2.16-.3.3-.22.62.16.56-.33 1.55-.82 1.77-.1.04-.2.06-.3.05-.55-.04-.81.13-1 .68-.18.51-.86.79-1.36.56-.5-.24-.71-.7-.82-1.24-.09-.4-.3-.57-.62-.4-.21.13-.38.09-.58.03-.2-.05-.38-.08-.6.07-.25.2-.4.14-.52-.18-.08-.22-.18-.32-.38-.39-.46-.16-.7-.6-.92-1.04-.06-.13-.03-.26.07-.36.12-.12.25-.2.42-.14.13.04.21.13.3.22.12.14.26.18.46.1zm-37.35 103.77c-.43 0-.72-.08-.98-.3-.3-.24-.32-.42-.1-.75l.23-.32c-.02-.2-.2-.12-.28-.2-.07-.1-.18-.19-.1-.3.15-.2.18-.45.3-.65.09-.14.2-.22.35-.2.12 0 .24 0 .36.02.66.14.66.15 1.14-.43-.01-.13-.12-.1-.2-.13-.34-.16-.35-.2-.12-.51.07-.1.15-.2.18-.34.1-.48.42-.67.8-.8.2-.08.43-.08.63-.23.16-.13.33 0 .45.15.11.12.21.14.37.11.64-.12 1.03.18 1.14.88.03.21.07.38.23.54.27.27.26.74 0 1.03-.18.2-.37.4-.58.56-.19.13-.23.28-.14.48.32.65.08 1.36.2 2.02.03.18-.08.33-.13.5-.1.3-.2.61-.2.94-.02.3-.15.4-.41.38-.47-.03-.88.1-1.29.42-.48.4-1 .75-1.58.95-.3.1-.6.1-.91.13-.23.02-.44-.18-.55-.35-.08-.13-.15-.28-.27-.4-.08-.07-.08-.17-.02-.25.1-.17.1-.25-.08-.4-.15-.11-.03-.35.13-.39.4-.09.62-.3.58-.78.37-.36.37-.98.85-1.38zm38.47-93.8c.65.16 1.23.09 1.66-.58.17.24.3.43.47.59.3.29.28.63-.01 1-.15.19-.18.36-.04.56.16.25.34.48.51.72.16.23.35.26.52.03.16-.23.3-.18.47 0 .24.26.38.63.67.87.11.09.01.28-.12.3-.72.04-.94.62-1.2 1.23-.16.43-.38.88-.86 1-.14.03-.23.14-.3.28-.22.38-.34.44-.56.3-.26-.16-.18-.37-.1-.63.1-.35.24-.72.02-1.16-.24.48-.59.61-1.01.61-.19 0-.37.09-.56.1-.41.02-.6-.25-.51-.69.01-.06.02-.12.06-.16.51-.47.36-1.24.66-1.82.1-.2.09-.46-.12-.61-.22-.15-.3-.41-.44-.63-.2-.34-.18-.51.11-.78l.35-.3c-.47.08-.67-.17-.77-.55-.05-.15-.11-.3-.14-.44-.04-.3-.12-.57-.36-.79-.22-.2-.18-.34.07-.47.36-.18.74-.3.94-.73l.05-.03c.1-.08.27-.15.33-.07.3.37.78-.12 1.04.32.05.09.1.2.17.28.23.23.27.45.03.72-.2.22-.15.55-.2.83-.04.3-.15.49-.45.5-.14.01-.27.04-.38.2zm33.27-16c-.08-.22-.25-.19-.36-.28-.09-.07-.14-.16-.13-.3 0-.12.1-.19.2-.23.02 0 .06 0 .1-.02.1-.04.3.06.27-.13-.02-.21-.2-.14-.34-.12-.15.03-.35.28-.46.07-.13-.25.15-.38.3-.52.13-.15.29-.27.45-.37.47-.3.48-.3.84.17.19.23.37.25.56 0 .15-.2.27-.45.37-.7.15-.35.11-.42-.24-.57-.34-.15-.45-.42-.27-.76.33-.64.82-1.08 1.4-1.42.28-.17.71.14.77.52.02.1 0 .23.02.34.04.35.12.46.42.43.3-.03.5.1.71.28.27.24.33.53.09.79-.5.53-.9 1.24-1.71 1.27-.1 0-.2.06-.3.1-.2.07-.29.18-.28.46.03.66-.2.84-.79.71-.45-.1-.6.03-.64.54-.01.25-.06.5-.07.74-.01.5-.23.78-.62.94-.13.05-.25.13-.38.2-.13.05-.26.12-.38-.02-.12-.13-.07-.28-.03-.43.06-.24.13-.46.36-.6.13-.07.06-.2-.05-.23-.27-.08-.46.07-.64.28-.28.35-.44.32-.66-.09l-.15-.3c-.2-.47-.18-.61.15-.96.27-.3.34-.3.6.02.24.31.36.34.9.18zm14.08-2.59c.03-.56.2-1.1.48-1.6.23-.4.68-.47 1-.16.14.14.24.12.38.07.38-.15.79-.23 1.13-.53.32-.27.75-.11.89.3a2.6 2.6 0 0 1-.28 2.4c-.29.43-.6.83-.9 1.26-.18.27-.39.36-.67.21l-.24-.1c-.3-.1-.59-.22-.9-.03-.14.1-.32.07-.41-.1-.2-.32-.5-.6-.43-1.07.03-.2-.03-.41-.05-.65zm-4.13-1.84c.27.47.26.51-.18.73-.17.08-.36.14-.52.24-.64.43-1.12.01-1.6-.36-.28-.23-.19-.66.17-.8.4-.18.82-.32 1.33-.31l-.8-.6c-.36-.3-.36-1.04-.01-1.36.11-.1.22-.06.32.03.21.2.43.4.62.62.17.18.34.25.55.1.26-.18.5-.1.72.1.21.2.43.38.69.61-.02-.27-.17-.38-.3-.5l-.62-.61c-.07-.06-.12-.15-.07-.25.04-.1.11-.15.2-.15.15.01.3 0 .41.05.55.24 1.11.44 1.52.94l.49.52c.22.25.21.38 0 .64-.08.1-.17.2-.27.27-.17.13-.3.24-.26.54.03.32-.47.87-.76.93-.15.04-.26-.03-.36-.15l-.57-.67c-.1-.11-.19-.22-.3-.3-.13-.11-.27-.18-.4-.26zm12.18-1.2c.13.98-.98 2.2-1.75 2.39-.37.09-.75.11-1.13.18-.19.04-.33-.03-.45-.2-.71-.98-.68-.92-.11-1.87.23-.37.5-.64.92-.64.25 0 .37-.17.45-.4.1-.3.19-.62.3-.92.22-.65.65-.76 1.13-.34.52.45.61 1.08.64 1.8zm-9.15 6.11c.39.4.45.6.2.94-.45.61-.66.72-1.13.45l-.34-.23c-.12.63-.51.7-.98.6-.24-.04-.49.03-.72-.08-.3-.13-.38-.31-.2-.6.2-.3.25-.58.18-.92-.04-.15-.02-.3-.01-.46 0-.24.11-.41.32-.46.34-.08.67-.22 1.02-.12.08.02.17.09.24-.01.06-.1.04-.23-.02-.32-.04-.1-.12-.19-.17-.29-.13-.24-.1-.32.14-.42.81-.3 2.18.2 2.67.97.09.14.19.3.1.47-.1.19-.28.14-.43.12-.58-.05-.58-.05-.87.36zm-61.26 132.08c-.04.48-.13.93-.32 1.35-.1.22-.08.38.09.56.32.36.41.84.41 1.33 0 .55 0 1.11-.02 1.67-.02.41 0 .88-.57.89-.11 0-.15.14-.22.22-.3.33-.5.3-.75-.08a1.66 1.66 0 0 1-.21-1.22c.05-.26.05-.53.05-.8.02-.27-.02-.53-.2-.74a.7.7 0 0 1-.16-.53c.01-.16.05-.3.25-.26.46.1.62-.33.88-.6.09-.09.02-.2-.06-.29-.43-.42-.48-1-.54-1.58-.02-.29.05-.56.33-.71.25-.13.5-.27.6-.6.03-.07.1-.1.18-.08.07.03.11.1.11.18.02.44.09.87.15 1.3zm47.93-136c-.18.09-.21.28-.23.47-.04.38-.2.68-.43.95-.18.23-.37.46-.54.7-.13.19-.31.29-.5.38-.22.1-.4.11-.51-.18-.07-.19-.22-.28-.36-.4-.22-.15-.44-.3-.65-.47-.15-.13-.39-.19-.38-.43.02-.3.3-.34.5-.42.15-.08.33-.15.5-.14.5.01.87-.28 1.27-.55.22-.14.34-.37.44-.62.14-.38.44-.5.76-.45.3.04.6.14.9.25.22.1.41.28.49.56.1.34.16.7.17 1.07.01.37-.1.45-.4.32-.4-.16-.76-.37-.88-.88-.02-.07-.06-.14-.15-.16zm.56 66.48c-.02-.6.08-1.19.4-1.7.36-.6.84-.65 1.32-.16.22.24.38.58.76.62.17.02.4.77.31.97-.02.07-.06.15-.14.13-.28-.05-.41.18-.52.39-.23.48-.7.6-1.05.88-.09.07-.2 0-.3.02-.22.03-.35-.44-.62-.14-.03.01-.12-.13-.15-.22-.1-.26 0-.53 0-.79zm-45.29-47.25c0 .17.02.27-.08.32-.1.04-.17-.02-.25-.06-.13-.08-.16-.24-.21-.38-.16-.5-.32-.96-.78-1.23-.26-.15-.35-.47-.4-.77-.07-.5-.14-.98-.4-1.41-.12-.18-.1-.4-.09-.62.01-.14 0-.33.18-.36.14-.03.3.06.34.2.2.45.53.83.56 1.39.03.58.21 1.13.63 1.53.14.12.24.28.25.48.01.35.28.62.25.91zm57.8-24.87c-.07-.02-.19-.04-.3-.08-.4-.17-.78-.33-1.15-.51-.36-.18-.38-.3-.1-.63.1-.12.22-.24.35-.34.6-.53.81-.52 1.35.08.12.14.25.27.35.42.14.2.28.43.16.68-.13.24-.35.36-.65.38zM478.4 4854a.42.42 0 0 1-.33-.13c-.32-.31-.7-.39-1.1-.4-.4 0-.47-.08-.45-.36.03-.32.21-.48.53-.46.08 0 .2-.03.25.02.5.5 1.15.21 1.7.41.32.1.64.32 1 .19.09-.03.14.1.12.2-.04.18-.1.36-.29.37-.48.01-.96.1-1.43.17zm8.41-143.62c-.16 0-.27-.06-.31-.24-.03-.19.08-.28.21-.34l.59-.23c.45-.17.92-.32 1.31-.65.2-.18.42-.16.62 0 .13.13.14.26.01.4l-.08.07c-.7.4-1.4.82-2.2.97l-.15.02zm-47.5 94.98c-.16.28-.12.73-.5.97l-.08.06c-.18.1-.27.46-.54.28-.17-.11-.15-1.06.01-1.18.2-.15.34-.4.54-.52.14-.09.27-.22.43-.16.2.09.07.3.13.55zm44.91-85.92c-.04.34-.53.58-.8.4-.15-.1-.21-.35-.43-.29-.2.06-.43.13-.58.32-.15.17-.31.32-.48.09-.16-.22.01-.35.16-.51.2-.24.5-.3.7-.55.15-.18.36.03.52.12.25.11.43.44.78.23.07-.05.13.08.13.2zm29.79 43.05c-.08.21-.05.48-.02.74 0 .08-.03.15-.1.18-.09.03-.14-.03-.17-.1l-.26-.68c-.1-.3-.2-.57-.5-.69-.14-.06-.26-.2-.19-.4s.24-.28.42-.25c.48.08.85.61.82 1.2zm-75.63 31.42c.11-.01.2-.04.28-.03.2.02.28.14.21.36-.03.1-.07.21-.13.31-.14.25-.31.47-.05.76.08.08.04.23-.06.3-.11.06-.2-.04-.26-.13a.83.83 0 0 1-.1-.27c-.04-.28-.19-.4-.46-.43-.3-.03-.31-.14-.17-.45.17-.37.41-.5.74-.42zm13.03 51.72c-.02.49-.4.72-.77.45a1.3 1.3 0 0 0-.37-.17c-.23-.08-.27-.26-.1-.48.2-.24.47-.38.75-.48.17-.06.5.4.49.68zm-6.05-46.85c.42.5.39 1.1.3 1.69-.02.21-.14.38-.32.45-.14-.1-.1-.22-.1-.33 0-.09.03-.25 0-.27-.53-.26-.1-.74-.2-1.1-.05-.2.14-.37.32-.44zm26.72-80.76c.03-.34.19-.51.46-.47.31.05.66.39.65.63-.01.27-.36.54-.65.5-.27-.03-.48-.35-.46-.66zm-36.53 45.65c-.11-.01-.15-.1-.12-.2a.9.9 0 0 1 .3-.4c.25-.21.52-.43.7-.74.04-.1.13-.17.24-.2.2-.05.34.06.3.3a.85.85 0 0 1-.39.64c-.3.2-.68.26-.93.57-.02.03-.07.03-.1.03zm44.5-43.35l.07-.23c.06-.18.18-.24.3-.07.17.22.31.45.44.7.1.2.07.41-.13.55-.19.12-.33.02-.43-.16a1.93 1.93 0 0 1-.25-.79zm-9.46-11.93c.01.2-.2.54-.37.57-.18.03-.53-.3-.55-.52-.02-.24.21-.59.4-.6.2 0 .51.32.52.55zm8.61 54.91c-.26 0-.47-.22-.46-.5 0-.1.37-.4.51-.4.17-.02.45.32.46.55.01.2-.21.35-.5.35zm.81 82.63c.24 0 .54.4.5.63 0 .09-.07.12-.13.15-.23.11-.67 0-.85-.2a.2.2 0 0 1-.02-.27c.13-.2.32-.27.5-.31zm-37.27-42.32c.01-.08.03-.15.03-.23.01-.17 0-.36.16-.45.18-.1.26.1.36.22.08.11.22.1.32.17.06.04.1.09.08.18-.02.08-.08.15-.15.13-.22-.07-.4-.07-.48.23-.02.08-.14.08-.23.04-.11-.07-.11-.17-.09-.3zm30.37 44.82c-.07.15.06.24.15.35.09.1.12.23 0 .34-.13.1-.24.04-.32-.07-.05-.05-.1-.12-.1-.18a.87.87 0 0 0-.24-.64c-.15-.16 0-.32.13-.42.13-.1.21 0 .28.12.08.14.2.28.1.5zm8.86 3.74c-.16-.03-.17-.18-.15-.34.04-.24.38-.58.61-.61.13-.02.2.04.2.18.02.33-.33.77-.66.77zm-10.73-105.38zm-.04.15c-.04.13-.11.24-.25.25-.17.03-.17-.14-.2-.27l-.07-.2c-.06-.16-.05-.3.08-.4.1-.1.2-.17.32-.1.15.1.21.25.16.57 0 .01-.01.08-.04.15zm.8 20.1c-.24-.03-.57-.65-.46-.9.04-.1.12-.1.17-.05.17.18.39.32.5.56.1.2-.02.4-.2.38zm1.2-.45c-.03.15.03.42-.23.4-.2-.02-.33-.2-.33-.45 0-.24.15-.43.34-.41.15.01.23.16.22.46zm18.97 18.6c0 .16-.02.3-.15.36-.17.08-.24-.08-.32-.2-.1-.16-.2-.33-.08-.52.08-.13.21-.13.33-.09.2.09.21.28.22.45zm-50.47 30.2c0 .13-.03.26-.12.35-.13.15-.3.35-.47.2-.17-.16.01-.35.1-.5.03-.09.1-.15.16-.22.06-.06.13-.13.22-.08s.1.15.11.24zm37.12 34.54zm.38.15c.04.1.03.23-.03.33-.1.15-.24.1-.37.03a.34.34 0 0 0-.15-.05c-.11-.03-.19-.1-.17-.24.02-.12.1-.2.21-.21l.13-.01c.19.03.33-.03.38.15zm.49-2.74c.14 0 .24.13.23.33 0 .2-.02.4-.24.44-.04.02-.11-.02-.13-.05a.94.94 0 0 1-.07-.61c.02-.07.09-.12.2-.11zm-2.45-84c-.17 0-.33-.22-.3-.4 0-.14.1-.23.22-.24.17 0 .34.17.33.36-.01.17-.1.26-.25.27zm3.39 89.77c.22-.23.34-.45.4-.7 0-.07.06-.14.14-.13.03 0 .07.05.07.06-.02.23.11.46-.03.65-.13.17-.31.19-.58.12zm-28.14-8.1c0 .14-.05.23-.17.25-.19.03-.43-.18-.41-.34.02-.13.11-.18.22-.2.2-.03.35.1.36.3zm-14.59-37.6c-.14-.05-.3-.12-.28-.32.01-.2.2-.21.35-.21.14 0 .23.09.2.25 0 .17-.1.27-.27.27zm31.8 1.36c-.11-.47-.2-.87-.16-1.3.04-.52.3-.87.62-1.21.07-.08.18-.1.28-.11.28-.05.43.1.32.37-.12.3-.15.58-.12.89 0 .06 0 .12-.03.16-.27.44-.62.78-.9 1.2zm4.79-2.63c.12-.41.02-.68-.13-.97-.16-.28-.02-.5.26-.65.29-.16.57-.35.91-.32.16.01.3.03.43.15.26.24.26.4-.02.61-.24.18-.43.46-.75.46-.13 0-.2.15-.26.26-.08.16-.15.35-.44.46zm1.37-2.62c0 .22-.16.27-.3.37-.36.25-.7.16-.91-.25-.04-.08-.03-.16.03-.2.2-.16.39-.33.6-.43.21-.1.6.26.58.51zm-3.6-3.7a.78.78 0 0 0-.04.57c.04.09-.06.2-.15.16-.2-.09-.43-.17-.53-.41-.06-.17.06-.64.18-.74.1-.09.2-.06.29 0 .14.08.25.19.25.41zm-6.6 13.85a.41.41 0 0 1-.43-.4c0-.17.02-.36.23-.36.17-.01.37.23.4.44 0 .17-.04.3-.2.32zm12.49-28.6c.12.02.25.05.28.21.03.13-.25.38-.4.37-.16-.01-.27-.12-.25-.29.02-.22.2-.27.37-.29z"/></defs><g><g transform="translate(-416 -4697)"><use fill="#ef5b5b" xlink:href="#i9z8a"/></g></g></svg>