<svg xmlns="http://www.w3.org/2000/svg" xmlns:xlink="http://www.w3.org/1999/xlink" width="60" height="60" viewBox="0 0 60 60"><defs><path id="3xh6a" d="M590 1875.62v33.91c0 .47-.33.89-.8 1l-11.79 2.9-9.1 2.25-21.36 5.27s-.17.05-.39.02a1.13 1.13 0 0 1-.38-.12l-15.63-8.36a1.03 1.03 0 0 1-.55-.9v-38.64c0-.34.17-.65.45-.85l15.62-10.88s.2-.14.47-.19c.23-.03.48.04.48.04l21.37 6.86c.43.14.73.54.73.99v18.65l.36.03v-11.55c0-.35.18-.68.48-.87l6.61-4.21s.19-.14.45-.17c.27-.02.46.05.46.05l11.8 3.78c.42.14.72.54.72.99zm-56.81 31.08v-2.92c0-.15-.1-.29-.26-.33l-.91-.25a.36.36 0 0 0-.31.06.35.35 0 0 0-.14.28v2.83c0 .15.1.28.23.33l.92.32.12.03c.07 0 .14-.03.2-.07.1-.06.15-.17.15-.28zm0-5.83v-2.92a.35.35 0 0 0-.32-.34l-.91-.1c-.1 0-.2.03-.27.1a.34.34 0 0 0-.12.25v2.84c0 .17.12.3.29.34l.91.17h.07c.08 0 .16-.03.22-.08a.34.34 0 0 0 .13-.26zm0-8.75c0-.1-.04-.19-.11-.26a.35.35 0 0 0-.27-.09l-.92.08a.35.35 0 0 0-.32.34v2.84c0 .19.16.34.35.34l.92.01c.09 0 .18-.04.25-.1.06-.06.1-.15.1-.24zm0-2.92v-2.92c0-.1-.05-.2-.14-.27a.36.36 0 0 0-.3-.06l-.92.24a.35.35 0 0 0-.26.33v2.84c0 .1.05.2.13.26a.36.36 0 0 0 .28.08l.92-.16c.17-.03.29-.17.29-.34zm0-8.75a.35.35 0 0 0-.16-.28.36.36 0 0 0-.34-.03l-.9.4a.35.35 0 0 0-.22.3v2.85c0 .1.06.21.15.28a.36.36 0 0 0 .32.04l.91-.31a.35.35 0 0 0 .24-.33zm0-2.91v-2.92a.34.34 0 0 0-.18-.3.36.36 0 0 0-.36.01l-.91.56a.34.34 0 0 0-.17.29v2.83c0 .13.06.24.17.3.06.03.12.05.18.05s.12-.02.17-.04l.91-.48a.34.34 0 0 0 .19-.3zm3.08 30.27v-3.2c0-.15-.11-.28-.26-.32l-1.09-.3a.36.36 0 0 0-.3.06.35.35 0 0 0-.15.27v3.1c0 .14.1.27.24.32l1.08.39a.37.37 0 0 0 .32-.04c.1-.07.16-.17.16-.28zm0-9.56a.35.35 0 0 0-.32-.35l-1.09-.1c-.1-.01-.2.02-.27.09a.34.34 0 0 0-.12.25v3.1c0 .16.12.3.3.33l1.08.2h.06c.09 0 .17-.02.23-.07a.34.34 0 0 0 .13-.27zm0-6.38c0-.1-.04-.19-.12-.25a.36.36 0 0 0-.26-.1l-1.1.1a.35.35 0 0 0-.32.34v3.09c0 .19.16.34.36.35h1.08c.1 0 .19-.03.25-.1.07-.06.1-.15.1-.24zm0-3.19v-3.18c0-.11-.06-.21-.14-.28a.35.35 0 0 0-.3-.06l-1.1.28a.35.35 0 0 0-.26.34v3.09c0 .1.05.2.13.26a.36.36 0 0 0 .29.08l1.08-.19c.17-.03.3-.17.3-.34zm0-9.56a.35.35 0 0 0-.16-.29.37.37 0 0 0-.34-.02l-1.09.47a.34.34 0 0 0-.2.31v3.1c0 .1.05.21.14.28a.35.35 0 0 0 .32.04l1.1-.38a.34.34 0 0 0 .23-.32zm0-6.37a.34.34 0 0 0-.18-.3.36.36 0 0 0-.36 0l-1.09.67a.35.35 0 0 0-.17.3v3.08a.34.34 0 0 0 .36.35c.05 0 .11-.02.16-.04l1.09-.57a.34.34 0 0 0 .19-.3zm3.7 36.39v-3.51c0-.16-.1-.3-.25-.34l-1.32-.35a.36.36 0 0 0-.3.05.35.35 0 0 0-.15.28v3.4c0 .14.1.27.23.32l1.32.47a.36.36 0 0 0 .33-.04c.09-.06.15-.17.15-.28zm0-7.03v-3.51a.35.35 0 0 0-.31-.34l-1.32-.13c-.1 0-.2.02-.27.09a.34.34 0 0 0-.12.25v3.4c0 .17.12.3.29.34l1.32.24h.06c.08 0 .16-.02.23-.07a.35.35 0 0 0 .13-.27zm0-7.02v-3.52c0-.1-.03-.19-.1-.25a.35.35 0 0 0-.27-.1l-1.32.11a.35.35 0 0 0-.33.35v3.4c0 .19.16.34.35.34l1.32.01c.1 0 .19-.04.25-.1.07-.06.1-.15.1-.24zm0-7.03v-3.51c0-.11-.05-.21-.13-.28a.36.36 0 0 0-.3-.06l-1.33.34a.35.35 0 0 0-.26.33v3.4a.35.35 0 0 0 .35.35h.06l1.32-.23c.17-.03.3-.17.3-.34zm0-7.03v-3.51a.34.34 0 0 0-.15-.3.36.36 0 0 0-.34-.02l-1.32.57a.34.34 0 0 0-.2.32v3.4c0 .1.05.21.14.28a.36.36 0 0 0 .32.04l1.32-.45a.35.35 0 0 0 .24-.33zm0-10.54a.34.34 0 0 0-.18-.3.36.36 0 0 0-.35 0l-1.32.81a.34.34 0 0 0-.17.3v3.4c0 .11.07.22.17.29a.36.36 0 0 0 .35 0l1.32-.68a.34.34 0 0 0 .19-.3zm4.56 40.29v-3.92c0-.15-.1-.29-.26-.33l-1.63-.44a.36.36 0 0 0-.3.05.35.35 0 0 0-.14.28v3.77c0 .14.09.27.23.32l1.63.59a.36.36 0 0 0 .32-.04c.1-.06.15-.17.15-.28zm0-7.83v-3.92a.35.35 0 0 0-.32-.34l-1.63-.16a.35.35 0 0 0-.39.35v3.77c0 .16.13.3.3.34l1.62.3a.36.36 0 0 0 .3-.07.34.34 0 0 0 .12-.27zm0-7.83v-3.92c0-.1-.04-.19-.11-.25a.35.35 0 0 0-.27-.09l-1.63.13a.35.35 0 0 0-.32.34v3.78c0 .19.15.34.35.34l1.63.01c.1 0 .18-.03.25-.1.06-.06.1-.15.1-.24zm0-7.83v-3.91c0-.11-.05-.2-.14-.28a.36.36 0 0 0-.3-.06l-1.63.42a.34.34 0 0 0-.27.34v3.77c0 .1.05.2.13.26a.36.36 0 0 0 .29.07l1.63-.27c.17-.03.3-.17.3-.34zm0-11.74a.34.34 0 0 0-.16-.3.36.36 0 0 0-.34-.02l-1.62.7a.34.34 0 0 0-.21.32v3.77c0 .12.05.22.15.29a.36.36 0 0 0 .31.04l1.63-.56a.34.34 0 0 0 .24-.33zm0-3.92v-3.91a.35.35 0 0 0-.18-.3.36.36 0 0 0-.36 0l-1.63 1a.35.35 0 0 0-.17.29v3.77c0 .12.07.23.18.3a.35.35 0 0 0 .34 0l1.63-.84a.34.34 0 0 0 .2-.3zm8.66 39.03v-3.88c0-.1-.05-.2-.12-.26a.37.37 0 0 0-.28-.09l-3.76.47a.35.35 0 0 0-.31.34v4.04c0 .1.04.2.12.27.07.05.15.08.23.08h.06l3.76-.63c.17-.03.3-.17.3-.34zm0-7.77v-3.86a.35.35 0 0 0-.37-.34l-3.76.16a.35.35 0 0 0-.34.35v4c0 .1.04.2.11.26s.16.09.24.09h.03l3.77-.32a.34.34 0 0 0 .32-.34zm0-11.66a.35.35 0 0 0-.34-.34l-3.76-.14a.35.35 0 0 0-.37.34v4.04c0 .1.04.18.1.24.07.07.16.1.25.1h3.77c.19 0 .35-.16.35-.35zm0-3.89v-3.88a.35.35 0 0 0-.31-.34l-3.76-.45a.36.36 0 0 0-.28.09.34.34 0 0 0-.12.25v4.04c0 .18.14.33.33.35l3.76.29h.02c.1 0 .18-.03.24-.1a.34.34 0 0 0 .12-.25zm0-11.65c0-.17-.12-.3-.29-.34l-3.76-.75a.36.36 0 0 0-.29.07.34.34 0 0 0-.13.27v4.04c0 .17.12.31.3.34l3.76.6h.05c.09 0 .17-.03.23-.08a.34.34 0 0 0 .13-.27zm0-3.89v-3.88c0-.16-.1-.3-.26-.34l-3.76-1.05a.36.36 0 0 0-.31.05.35.35 0 0 0-.14.28v4.04c0 .16.11.3.27.34l3.76.9h.08a.34.34 0 0 0 .35-.35zm6.73 37.75v-3.62c0-.1-.05-.19-.12-.26a.36.36 0 0 0-.28-.08l-3.24.4a.35.35 0 0 0-.31.35v3.74a.35.35 0 0 0 .35.35h.06l3.24-.54c.17-.03.3-.18.3-.34zm0-10.84c0-.1-.04-.19-.11-.25a.35.35 0 0 0-.26-.1l-3.24.15a.35.35 0 0 0-.34.34v3.74c0 .1.04.2.11.26s.16.09.24.09h.03l3.25-.28a.35.35 0 0 0 .32-.34zm0-3.62v-3.6a.35.35 0 0 0-.34-.35l-3.24-.12a.35.35 0 0 0-.37.34v3.75c0 .09.04.18.1.24.07.07.16.1.25.1l3.25-.01c.2 0 .35-.16.35-.35zm0-7.22v-3.61a.35.35 0 0 0-.31-.35l-3.25-.38a.35.35 0 0 0-.27.08.34.34 0 0 0-.12.26v3.74c0 .18.14.33.32.35l3.25.25h.03c.08 0 .17-.03.24-.09a.35.35 0 0 0 .1-.25zm0-10.84c0-.17-.12-.3-.28-.34l-3.25-.65a.36.36 0 0 0-.3.07.34.34 0 0 0-.12.27v3.75c0 .16.13.31.3.34l3.24.51h.06a.35.35 0 0 0 .35-.34zm0-3.61v-3.62c0-.15-.1-.29-.26-.33l-3.24-.9a.36.36 0 0 0-.3.05.34.34 0 0 0-.15.27v3.75c0 .16.11.3.27.33l3.24.78.09.01c.07 0 .15-.03.21-.07a.34.34 0 0 0 .14-.27zm5.85 35.16v-3.38c0-.1-.05-.2-.12-.26a.36.36 0 0 0-.28-.08l-2.83.35a.35.35 0 0 0-.3.35v3.49c0 .1.04.2.12.26a.36.36 0 0 0 .29.08l2.82-.47c.17-.03.3-.17.3-.34zm0-6.75v-3.38c0-.1-.04-.18-.11-.25a.35.35 0 0 0-.26-.1l-2.83.13a.35.35 0 0 0-.33.34v3.5c0 .1.04.18.1.25.08.06.16.09.25.09h.03l2.82-.24a.35.35 0 0 0 .33-.34zm0-10.13a.35.35 0 0 0-.34-.35l-2.83-.1c-.1 0-.19.03-.25.1a.33.33 0 0 0-.11.24v3.5c0 .09.03.17.1.24.07.06.16.1.25.1l2.82-.01c.2 0 .36-.16.36-.35zm0-3.38v-3.37a.34.34 0 0 0-.31-.34l-2.83-.34a.35.35 0 0 0-.4.34v3.5c0 .17.15.32.33.33l2.83.22h.02c.1 0 .18-.03.24-.08a.34.34 0 0 0 .12-.26zm0-6.75v-3.38c0-.16-.12-.3-.29-.34l-2.82-.56a.36.36 0 0 0-.3.07.34.34 0 0 0-.12.27v3.49c0 .17.12.31.3.34l2.82.45a.36.36 0 0 0 .29-.08.34.34 0 0 0 .12-.26zm0-6.75v-3.38c0-.15-.1-.29-.26-.33l-2.82-.8a.36.36 0 0 0-.31.06.34.34 0 0 0-.14.28v3.5c0 .15.1.29.26.33l2.83.67.08.01c.08 0 .16-.02.22-.07a.34.34 0 0 0 .14-.27zm11.73 37.62v-17.4c0-.04-.05-3.24-4.6-3.4-5.14-.2-5.2 3.4-5.2 3.43v19.6a.35.35 0 0 0 .36.35h.09l9.09-2.25a.35.35 0 0 0 .26-.33zm3.82-6.44v-2.74c0-.1-.04-.2-.12-.26a.37.37 0 0 0-.28-.08l-1.85.23a.35.35 0 0 0-.31.34v2.82a.35.35 0 0 0 .41.34l1.86-.3c.17-.03.3-.18.3-.35zm0-8.23c0-.1-.04-.19-.1-.25a.35.35 0 0 0-.27-.1l-1.85.09a.35.35 0 0 0-.34.34v2.82c0 .1.04.19.11.25s.15.1.24.1h.03l1.86-.17a.35.35 0 0 0 .32-.34zm0-2.77v-2.72a.35.35 0 0 0-.34-.35l-1.85-.07c-.1 0-.2.03-.26.1a.34.34 0 0 0-.1.25v2.8c0 .09.03.17.1.24.06.06.15.1.24.1h1.86c.2 0 .35-.16.35-.35zm0-5.47v-2.75a.34.34 0 0 0-.3-.34l-1.87-.22a.35.35 0 0 0-.27.09.34.34 0 0 0-.12.25v2.82c0 .18.14.33.32.35l1.86.14h.03c.09 0 .17-.03.24-.09a.34.34 0 0 0 .11-.25zm0-8.24c0-.16-.12-.3-.28-.34l-1.86-.36a.37.37 0 0 0-.3.07.34.34 0 0 0-.12.26v2.82c0 .17.12.32.3.35l1.85.29h.06c.08 0 .16-.02.23-.08a.34.34 0 0 0 .12-.26zm0-5.49c0-.15-.1-.29-.25-.33l-1.86-.52a.36.36 0 0 0-.3.06.34.34 0 0 0-.15.27v2.82c0 .16.11.3.27.34l1.86.44.08.01a.34.34 0 0 0 .35-.35zm3.43 29.64v-2.61c0-.1-.04-.2-.12-.26a.35.35 0 0 0-.28-.08l-1.67.2a.35.35 0 0 0-.3.35v2.67a.34.34 0 0 0 .35.35h.06l1.67-.29c.17-.02.3-.17.3-.33zm0-7.82c0-.1-.04-.19-.1-.25a.35.35 0 0 0-.27-.1l-1.67.08a.35.35 0 0 0-.33.34v2.68c0 .1.04.18.11.25.07.06.15.09.24.09h.03l1.67-.14a.35.35 0 0 0 .32-.35zm0-2.6v-2.62a.35.35 0 0 0-.34-.34l-1.67-.06c-.1 0-.19.03-.26.1a.34.34 0 0 0-.1.24v2.68c0 .09.03.18.1.24.07.07.16.1.25.1h1.67c.2 0 .35-.16.35-.35zm0-5.22v-2.61a.35.35 0 0 0-.3-.34l-1.68-.2a.35.35 0 0 0-.4.34v2.68c0 .18.15.33.33.34l1.67.13h.03a.35.35 0 0 0 .35-.34zm0-5.22v-2.6c0-.17-.12-.3-.28-.34l-1.67-.33a.35.35 0 0 0-.43.33v2.68c0 .17.13.31.3.34l1.67.27h.06c.08 0 .16-.03.23-.08a.34.34 0 0 0 .12-.27zm0-5.21v-2.6c0-.16-.1-.3-.25-.34l-1.67-.47a.35.35 0 0 0-.31.06.34.34 0 0 0-.14.28v2.67c0 .16.1.3.26.33l1.67.4.09.02c.08 0 .15-.03.22-.08a.34.34 0 0 0 .13-.27zm3.1 25.55v-2.48c0-.1-.04-.2-.12-.26a.36.36 0 0 0-.28-.08l-1.5.19a.35.35 0 0 0-.32.34v2.54a.35.35 0 0 0 .41.34l1.52-.25c.17-.03.3-.17.3-.34zm0-7.44c0-.1-.04-.18-.1-.25a.36.36 0 0 0-.27-.1l-1.5.07a.35.35 0 0 0-.34.35v2.54c0 .1.04.19.11.25s.15.1.24.1h.03l1.51-.14a.35.35 0 0 0 .32-.34zm0-2.48v-2.48a.35.35 0 0 0-.34-.34l-1.5-.06c-.1 0-.2.03-.27.1a.35.35 0 0 0-.1.25v2.54c0 .09.03.17.1.24.06.06.16.1.25.1h1.51c.2 0 .35-.16.35-.35zm0-7.44a.35.35 0 0 0-.3-.35l-1.52-.18a.36.36 0 0 0-.28.09.34.34 0 0 0-.11.26v2.54c0 .18.14.33.32.34l1.51.12h.03c.09 0 .17-.03.24-.09a.34.34 0 0 0 .11-.25zm0-2.48v-2.49c0-.16-.11-.3-.28-.33l-1.51-.3a.37.37 0 0 0-.3.07.34.34 0 0 0-.12.26v2.54c0 .17.12.32.3.35l1.5.24h.06c.08 0 .16-.03.23-.08a.34.34 0 0 0 .12-.26zm0-4.97v-2.48c0-.15-.1-.29-.25-.33l-1.52-.42a.36.36 0 0 0-.3.05.34.34 0 0 0-.14.28v2.54c0 .16.1.3.26.34l1.52.36a.36.36 0 0 0 .3-.06.34.34 0 0 0 .13-.28z"/></defs><g><g transform="translate(-530 -1861)"><use fill="#00b1ff" xlink:href="#3xh6a"/></g></g></svg>